<svg width="28" height="28" viewBox="0 0 28 28" fill="none" xmlns="http://www.w3.org/2000/svg">
<g clip-path="url(#clip0_11696_7515)">
<rect x="1" y="1" width="21" height="21" rx="5" fill="#FBE8BB"/>
<path d="M24.5 12.8333V9.33333C24.5 7.78624 23.8854 6.30251 22.7915 5.20854C21.6975 4.11458 20.2138 3.5 18.6667 3.5H9.33333C7.78624 3.5 6.30251 4.11458 5.20854 5.20854C4.11458 6.30251 3.5 7.78624 3.5 9.33333V18.6667C3.5 20.2138 4.11458 21.6975 5.20854 22.7915C6.30251 23.8854 7.78624 24.5 9.33333 24.5H14" stroke="#292929" stroke-width="1.2" stroke-linecap="round" stroke-linejoin="round"/>
<path d="M14 16.3333H11.6666C11.0478 16.3333 10.4543 16.5791 10.0167 17.0167C9.57915 17.4543 9.33331 18.0478 9.33331 18.6666V18.6666" stroke="#FD9339" stroke-width="1.2" stroke-linecap="round" stroke-linejoin="round"/>
<path d="M14 13.4167C15.4497 13.4167 16.625 12.2415 16.625 10.7917C16.625 9.34197 15.4497 8.16672 14 8.16672C12.5503 8.16672 11.375 9.34197 11.375 10.7917C11.375 12.2415 12.5503 13.4167 14 13.4167Z" fill="white" stroke="#292929" stroke-width="1.2" stroke-linecap="round" stroke-linejoin="round"/>
<path d="M17.5 20.9939C17.5 22.958 19.9714 24.4118 21.0708 24.9616C21.23 25.0417 21.4056 25.0834 21.5838 25.0833C21.7619 25.0832 21.9376 25.0414 22.0966 24.9612C23.1964 24.411 25.6666 22.9606 25.6666 20.9939V18.1974C25.6621 18.0501 25.6032 17.9096 25.5013 17.8031C25.3993 17.6966 25.2616 17.6316 25.1146 17.6206C24.0807 17.5257 23.091 17.1556 22.2485 16.5488C22.055 16.4087 21.8222 16.3333 21.5833 16.3333C21.3444 16.3333 21.1116 16.4087 20.9181 16.5488C20.0756 17.1556 19.0859 17.5257 18.052 17.6206C17.905 17.6316 17.7673 17.6966 17.6654 17.8031C17.5634 17.9096 17.5045 18.0501 17.5 18.1974V20.9939Z" fill="white" stroke="#292929" stroke-width="1.2" stroke-linecap="round" stroke-linejoin="round"/>
</g>
<defs>
<clipPath id="clip0_11696_7515">
<rect width="28" height="28" fill="white"/>
</clipPath>
</defs>
</svg>
