<svg width="24" height="24" viewBox="0 0 24 24" fill="none" xmlns="http://www.w3.org/2000/svg">
<path d="M20.0156 14.0206C19.6124 13.6456 19.2796 13.4206 19.1484 13.0597C19.1015 12.9331 19.0874 12.8581 19.1015 12.7034C19.1202 12.4222 19.3593 12.0565 20.9577 9.94248C21.6234 9.06123 22.4906 7.99717 22.4906 7.20029C22.4906 6.68467 22.2796 6.55811 21.5156 6.55811H18.0468C17.7421 6.55811 17.5359 6.97529 17.4093 7.32686C17.2781 7.67842 17.0249 8.21748 16.4062 9.37998C15.7593 10.5987 14.8921 11.6675 14.5312 11.8362C14.4281 11.8831 14.3624 11.8831 14.2734 11.8737C14.2171 11.869 14.0952 11.8362 13.9827 11.7003C13.8749 11.569 13.7062 11.3394 13.7718 9.17373C13.8093 7.96436 13.9452 7.12061 13.6921 6.60498C13.6406 6.50186 13.5281 6.39404 13.4671 6.34717C13.1062 6.08936 12.089 5.99561 11.2171 5.99561C10.3452 5.99561 9.67493 6.09404 9.34211 6.19248C9.0093 6.29092 8.6343 6.51592 8.45618 6.75498C8.33899 6.90967 8.65774 6.82998 8.96711 6.97061C9.15461 7.05498 9.40305 7.18623 9.49211 7.40654C9.86712 8.38154 9.9468 9.15498 9.74055 10.5331C9.68899 10.8706 9.63274 11.4003 9.43118 11.7284C9.31868 11.9112 9.06086 11.8972 8.98586 11.8737C8.23118 11.644 7.64524 10.655 7.05461 9.49717C6.44055 8.28779 6.12649 7.43936 5.95774 7.09248C5.78899 6.74561 5.53118 6.55811 5.09524 6.55811H1.98274C1.73899 6.55811 1.51868 6.75967 1.51868 6.97998C1.51868 7.49561 2.39055 8.99561 2.91555 10.0737C3.86243 12.0144 5.10461 13.8894 6.77805 15.7081C8.53118 17.6394 10.9218 18.0003 11.6859 18.0003C12.4499 18.0003 13.0452 17.9722 13.2468 17.93C13.3406 17.9112 13.439 17.869 13.514 17.8128C13.8468 17.555 13.7859 17.0628 13.8093 16.6784C13.8327 16.2847 13.8749 15.7644 14.1374 15.4597C14.3812 15.1737 14.6577 15.094 15.0093 15.2675C15.3374 15.4315 15.5718 15.7081 15.8156 15.9753C16.289 16.4862 16.7202 17.0628 17.2827 17.4847C17.5406 17.6769 17.8218 17.7987 18.1218 17.8925C18.5202 18.0144 18.8952 18.019 19.3077 18.0003C19.7624 17.9815 20.1046 17.9862 20.6671 17.9862C21.2296 17.9862 21.9656 18.0097 22.2187 17.8222C22.3406 17.7284 22.4999 17.5878 22.4999 17.2925C22.4999 16.7347 21.9281 15.8065 20.0156 14.0206Z" fill="#4E2D2D"/>
</svg>
