<svg width="24" height="24" viewBox="0 0 24 24" fill="none" xmlns="http://www.w3.org/2000/svg">
<path d="M15.75 4.5C16.7437 4.5 17.6859 4.89375 18.3984 5.60156C19.1109 6.30938 19.5 7.25625 19.5 8.25V15.75C19.5 16.7437 19.1063 17.6859 18.3984 18.3984C17.6906 19.1109 16.7437 19.5 15.75 19.5H8.25C7.25625 19.5 6.31406 19.1063 5.60156 18.3984C4.88906 17.6906 4.5 16.7437 4.5 15.75V8.25C4.5 7.25625 4.89375 6.31406 5.60156 5.60156C6.30938 4.88906 7.25625 4.5 8.25 4.5H15.75ZM15.75 3H8.25C5.3625 3 3 5.3625 3 8.25V15.75C3 18.6375 5.3625 21 8.25 21H15.75C18.6375 21 21 18.6375 21 15.75V8.25C21 5.3625 18.6375 3 15.75 3Z" fill="#4E2D2D"/>
<path d="M16.875 8.25C16.2516 8.25 15.75 7.74844 15.75 7.125C15.75 6.50156 16.2516 6 16.875 6C17.4937 6 18 6.50156 18 7.125C18 7.74844 17.4937 8.25 16.875 8.25ZM12 9C13.6547 9 15 10.3453 15 12C15 13.6547 13.6547 15 12 15C10.3453 15 9 13.6547 9 12C9 10.3453 10.3453 9 12 9ZM12 7.5C9.51562 7.5 7.5 9.51562 7.5 12C7.5 14.4844 9.51562 16.5 12 16.5C14.4844 16.5 16.5 14.4844 16.5 12C16.5 9.51562 14.4844 7.5 12 7.5Z" fill="#4E2D2D"/>
</svg>
