<svg width="24" height="24" viewBox="0 0 24 24" fill="none" xmlns="http://www.w3.org/2000/svg">
<g clip-path="url(#clip0_958_9917)">
<path d="M23.8406 6.975C23.8406 4.86563 22.289 3.16875 20.3718 3.16875C17.7749 3.04687 15.1265 3 12.4218 3H11.5781C8.87805 3 6.22493 3.04687 3.62805 3.16875C1.71555 3.16875 0.163989 4.875 0.163989 6.98438C0.0468014 8.65312 -0.00476108 10.3219 -7.35804e-05 11.9906C-0.00476108 13.6594 0.0468014 15.3281 0.159301 17.0016C0.159301 19.1109 1.71086 20.8219 3.62336 20.8219C6.35149 20.9484 9.14993 21.0047 11.9952 21C14.8452 21.0094 17.6343 20.9531 20.3671 20.8219C22.2843 20.8219 23.8359 19.1109 23.8359 17.0016C23.9484 15.3281 23.9999 13.6594 23.9952 11.9859C24.0046 10.3172 23.9531 8.64844 23.8406 6.975ZM9.70305 16.5891V7.37812L16.4999 11.9813L9.70305 16.5891Z" fill="#4E2D2D"/>
</g>
<defs>
<clipPath id="clip0_958_9917">
<rect width="24" height="24" fill="white"/>
</clipPath>
</defs>
</svg>
