<svg width="24" height="24" viewBox="0 0 24 24" fill="none" xmlns="http://www.w3.org/2000/svg">
<path d="M20.0062 3H3.99375C3.44531 3 3 3.44531 3 3.99375V20.0062C3 20.5547 3.44531 21 3.99375 21H12V13.875H9.84844V11.25H12V9.30938C12 6.98438 13.6125 5.71875 15.6891 5.71875C16.6828 5.71875 17.7516 5.79375 18 5.82656V8.25469H16.3453C15.2156 8.25469 15 8.78906 15 9.57656V11.25H17.6906L17.3391 13.875H15V21H20.0062C20.5547 21 21 20.5547 21 20.0062V3.99375C21 3.44531 20.5547 3 20.0062 3Z" fill="#4E2D2D"/>
</svg>
