<svg width="24" height="24" viewBox="0 0 24 24" fill="none" xmlns="http://www.w3.org/2000/svg">
<g clip-path="url(#clip0_11696_7507)">
<path d="M11.3237 9.85352L7.4353 13.9705L10.974 12.0288L12.823 13.9705L16.6896 9.85352L13.1901 11.7611L11.3237 9.85352Z" fill="#0084FF"/>
<path d="M12 0C5.3736 0 0 5.3736 0 12C0 18.6264 5.3736 24 12 24C18.6264 24 24 18.6264 24 12C24 5.3736 18.6264 0 12 0ZM12.0938 18.4235C11.3509 18.4235 10.6339 18.3186 9.95929 18.1243L7.53937 19.5V16.912C5.91852 15.6786 4.88342 13.8001 4.88342 11.6962C4.88342 7.98065 8.11157 4.96875 12.0938 4.96875C16.0761 4.96875 19.3041 7.98065 19.3041 11.6962C19.3041 15.4114 16.0761 18.4235 12.0938 18.4235Z" fill="#0084FF"/>
</g>
<defs>
<clipPath id="clip0_11696_7507">
<rect width="24" height="24" fill="white"/>
</clipPath>
</defs>
</svg>
