<svg width="48" height="48" viewBox="0 0 48 48" fill="none" xmlns="http://www.w3.org/2000/svg">
<path d="M11.0167 25.183C11.0146 25.1714 11.0126 25.1598 11.0109 25.1482L8.57067 10.5068C8.32958 9.06024 7.07801 8 5.61149 8H5C4.44772 8 4 7.55228 4 7C4 6.44772 4.44772 6 5 6H5.61149C7.99513 6 10.038 7.68058 10.5105 10H43C43.6644 10 44.144 10.6359 43.9615 11.2747L39.9615 25.2747C39.8389 25.704 39.4465 26 39 26H13.1805L13.4293 27.4932C13.6704 28.9398 14.922 30 16.3885 30H39C39.5523 30 40 30.4477 40 31C40 31.5523 39.5523 32 39 32H16.3885C13.9443 32 11.8584 30.2329 11.4565 27.822L11.0167 25.183V25.183ZM10.8471 12L12.8471 24H38.2457L41.6743 12H10.8471ZM16 42C13.7909 42 12 40.2091 12 38C12 35.7909 13.7909 34 16 34C18.2091 34 20 35.7909 20 38C20 40.2091 18.2091 42 16 42ZM16 40C17.1046 40 18 39.1046 18 38C18 36.8954 17.1046 36 16 36C14.8954 36 14 36.8954 14 38C14 39.1046 14.8954 40 16 40ZM34 42C31.7909 42 30 40.2091 30 38C30 35.7909 31.7909 34 34 34C36.2091 34 38 35.7909 38 38C38 40.2091 36.2091 42 34 42ZM34 40C35.1046 40 36 39.1046 36 38C36 36.8954 35.1046 36 34 36C32.8954 36 32 36.8954 32 38C32 39.1046 32.8954 40 34 40Z" fill="#292929"/>
</svg>
