<svg width="102" height="91" viewBox="0 0 102 91" fill="none" xmlns="http://www.w3.org/2000/svg">
<path d="M17.8923 48.4903C17.8869 48.4612 17.882 48.4318 17.8775 48.4024L11.655 11.3922C11.0403 7.73561 7.8488 5.05556 4.10924 5.05556H2.54996C1.14166 5.05556 0 3.92383 0 2.52778C0 1.13172 1.14166 0 2.54996 0H4.10924C10.1874 0 15.3968 4.24814 16.6016 10.1111H99.4485C101.143 10.1111 102.366 11.7185 101.9 13.3333L91.7005 48.7222C91.3877 49.8074 90.3871 50.5556 89.2486 50.5556H23.4098L24.0444 54.33C24.6592 57.9866 27.8507 60.6667 31.5902 60.6667H89.2486C90.6569 60.6667 91.7986 61.7984 91.7986 63.1944C91.7986 64.5905 90.6569 65.7222 89.2486 65.7222H31.5902C25.3576 65.7222 20.0385 61.2555 19.0139 55.1612L17.8923 48.4903V48.4903ZM17.4599 15.1667L22.5598 45.5H87.3252L96.0679 15.1667H17.4599ZM30.5995 91C24.9663 91 20.3997 86.4731 20.3997 80.8889C20.3997 75.3047 24.9663 70.7778 30.5995 70.7778C36.2328 70.7778 40.7994 75.3047 40.7994 80.8889C40.7994 86.4731 36.2328 91 30.5995 91ZM30.5995 85.9444C33.4161 85.9444 35.6995 83.681 35.6995 80.8889C35.6995 78.0968 33.4161 75.8333 30.5995 75.8333C27.7829 75.8333 25.4996 78.0968 25.4996 80.8889C25.4996 83.681 27.7829 85.9444 30.5995 85.9444ZM76.4988 91C70.8656 91 66.299 86.4731 66.299 80.8889C66.299 75.3047 70.8656 70.7778 76.4988 70.7778C82.132 70.7778 86.6987 75.3047 86.6987 80.8889C86.6987 86.4731 82.132 91 76.4988 91ZM76.4988 85.9444C79.3154 85.9444 81.5988 83.681 81.5988 80.8889C81.5988 78.0968 79.3154 75.8333 76.4988 75.8333C73.6822 75.8333 71.3989 78.0968 71.3989 80.8889C71.3989 83.681 73.6822 85.9444 76.4988 85.9444Z" fill="#4E2D2D"/>
</svg>
