<svg width="231" height="42" viewBox="0 0 231 42" fill="none" xmlns="http://www.w3.org/2000/svg">
<path d="M49.2227 22.9103C46.8628 22.9103 44.8742 22.1193 43.3098 20.5372C41.7455 18.9552 40.95 17.004 40.95 14.6573V14.6045C40.95 12.2842 41.7455 10.3066 43.3364 8.72458C44.9273 7.11615 46.9424 6.32513 49.3818 6.32513C51.9537 6.32513 54.0749 7.14252 55.7453 8.80368L53.4916 11.3877C52.1128 10.1748 50.7605 9.56834 49.3552 9.56834C48.0295 9.56834 46.9159 10.043 46.0144 11.0186C45.1129 11.9942 44.6886 13.1807 44.6886 14.5518V14.6045C44.6886 16.002 45.1394 17.2149 46.0144 18.1905C46.8894 19.1661 48.003 19.6671 49.3818 19.6671C50.2302 19.6671 50.9992 19.5089 51.6355 19.2189C52.2719 18.9025 52.9348 18.4278 53.6242 17.795L55.8779 20.0626C54.9764 21.0382 54.0219 21.7501 53.0143 22.2248C51.9537 22.673 50.7075 22.9103 49.2227 22.9103Z" fill="#4E2D2D"/>
<path d="M58.6884 22.6217V6.59019H62.2414V11.6264H65.105C67.0936 11.6264 68.6315 12.101 69.7716 13.0239C70.9118 13.9467 71.4686 15.2915 71.4686 17.0581V17.0845C71.4686 18.8247 70.9118 20.1695 69.7716 21.1714C68.6315 22.1734 67.0406 22.6744 64.9724 22.6744H58.6884V22.6217ZM62.2414 19.4576H65.0255C65.927 19.4576 66.6163 19.2466 67.1201 18.8511C67.6239 18.4556 67.8625 17.8755 67.8625 17.1108V17.0845C67.8625 16.3462 67.6239 15.7925 67.1466 15.3706C66.6694 14.9751 65.98 14.7641 65.052 14.7641H62.2414V19.4576ZM73.8019 22.6217V6.59019H77.3549V22.648H73.8019V22.6217Z" fill="#4E2D2D"/>
<path d="M81.2261 22.6217V6.59019H87.8283C89.7374 6.59019 91.2487 7.09117 92.3358 8.11951C93.4495 9.14784 94.0063 10.4662 94.0063 12.1537V12.2065C94.0063 13.9995 93.3964 15.397 92.1502 16.3726C90.9305 17.3482 89.3662 17.8491 87.4836 17.8491H84.7791V22.6744H81.2261V22.6217ZM84.7791 14.685H87.5897C88.4381 14.685 89.1275 14.4477 89.6313 13.9995C90.1351 13.5512 90.4003 12.9711 90.4003 12.2592V12.2065C90.4003 11.4155 90.1351 10.8354 89.6313 10.4135C89.1275 9.9916 88.4116 9.78066 87.5101 9.78066H84.7791V14.685Z" fill="#4E2D2D"/>
<path d="M110.605 20.4858C108.961 22.0942 106.919 22.9116 104.453 22.9116C101.987 22.9116 99.9458 22.1205 98.3284 20.5121C96.711 18.9037 95.889 16.9525 95.889 14.6585V14.6058C95.889 12.2854 96.711 10.3342 98.3549 8.72582C99.9989 7.1174 102.041 6.3 104.506 6.3C106.972 6.3 109.014 7.09103 110.631 8.69945C112.249 10.3079 113.071 12.2591 113.071 14.553V14.6058C113.071 16.9261 112.249 18.8773 110.605 20.4858ZM101.006 18.1918C101.934 19.1674 103.101 19.6684 104.506 19.6684C105.912 19.6684 107.078 19.1937 107.98 18.2181C108.881 17.2425 109.332 16.0824 109.332 14.6585V14.6058C109.332 13.2083 108.881 11.9954 107.953 11.0198C107.025 10.0442 105.859 9.54321 104.453 9.54321C103.048 9.54321 101.881 10.0178 100.98 10.9934C100.078 11.969 99.6276 13.1292 99.6276 14.553V14.6058C99.6276 16.0033 100.078 17.2162 101.006 18.1918Z" fill="#4E2D2D"/>
<path d="M116.226 22.6217V6.59019H123.73C125.586 6.59019 126.991 7.0648 127.946 8.01404C128.688 8.75233 129.059 9.64882 129.059 10.7299V10.7826C129.059 12.3647 128.343 13.4985 126.938 14.2368C127.946 14.6059 128.688 15.1069 129.192 15.7397C129.696 16.3462 129.961 17.1636 129.961 18.1919V18.2446C129.961 19.6685 129.43 20.7759 128.343 21.5142C127.256 22.2525 125.798 22.648 123.915 22.648H116.226V22.6217ZM125.506 11.3627V11.31C125.506 10.2025 124.737 9.64882 123.173 9.64882H119.673V13.0766H122.934C124.658 13.0766 125.506 12.4965 125.506 11.3627ZM126.408 17.7964V17.7437C126.408 16.5835 125.533 16.0034 123.783 16.0034H119.673V19.5367H123.889C125.586 19.5367 126.408 18.9566 126.408 17.7964Z" fill="#4E2D2D"/>
<path d="M131.499 22.6217L138.419 6.45843H141.68L148.601 22.6217H144.889L143.404 19.0094H136.589L135.105 22.6217H131.499ZM137.862 15.9244H142.158L139.983 10.7036L137.862 15.9244Z" fill="#4E2D2D"/>
<path d="M151.093 22.6217V6.59019H157.695C159.604 6.59019 161.115 7.09117 162.202 8.11951C163.316 9.14784 163.873 10.4662 163.873 12.1537V12.2065C163.873 13.9995 163.263 15.397 162.017 16.3726C160.797 17.3482 159.233 17.8491 157.35 17.8491H154.646V22.6744H151.093V22.6217ZM154.619 14.685H157.43C158.278 14.685 158.968 14.4477 159.471 13.9995C159.975 13.5512 160.24 12.9711 160.24 12.2592V12.2065C160.24 11.4155 159.975 10.8354 159.471 10.4135C158.968 9.9916 158.252 9.78066 157.35 9.78066H154.619V14.685Z" fill="#4E2D2D"/>
<path d="M166.472 22.6217V6.59019H178.642V9.72793H169.998V12.9711H177.608V16.1089H169.998V19.4839H178.748V22.6217H166.472Z" fill="#4E2D2D"/>
<path d="M181.93 22.6217V6.59019H185.483V12.9448H192.033V6.59019H195.586V22.648H192.033V16.188H185.483V22.6217H181.93Z" fill="#4E2D2D"/>
<path d="M213.801 22.6217H210.248V12.1537L202.585 22.6217H199.456V6.59019H203.009V16.7417L210.407 6.59019H213.801V22.6217Z" fill="#4E2D2D"/>
<path d="M217.672 22.6217V6.59019H229.842V9.72793H221.198V12.9711H228.808V16.1089H221.198V19.4839H229.948V22.6217H217.672Z" fill="#4E2D2D"/>
<path d="M41.9651 30.8058C41.9651 30.3063 42.0318 29.8431 42.165 29.4162C42.2982 28.9893 42.498 28.62 42.7644 28.3081C43.0308 27.9933 43.3653 27.7466 43.768 27.5679C44.1706 27.3893 44.6399 27.3 45.1758 27.3C45.6692 27.3 46.1143 27.3893 46.5109 27.5679C46.9075 27.7466 47.2435 27.9933 47.519 28.3081C47.7975 28.62 48.011 28.9893 48.1593 29.4162C48.3077 29.8431 48.3818 30.3063 48.3818 30.8058C48.3818 31.3023 48.3077 31.7655 48.1593 32.1954C48.011 32.6223 47.7975 32.9931 47.519 33.308C47.2435 33.6198 46.9075 33.865 46.5109 34.0436C46.1143 34.2223 45.6692 34.3116 45.1758 34.3116C44.6399 34.3116 44.1706 34.2223 43.768 34.0436C43.3653 33.865 43.0308 33.6198 42.7644 33.308C42.498 32.9931 42.2982 32.6223 42.165 32.1954C42.0318 31.7655 41.9651 31.3023 41.9651 30.8058ZM45.1758 33.1036C45.4603 33.1036 45.7146 33.0461 45.9387 32.9311C46.1627 32.816 46.3519 32.6571 46.5063 32.4542C46.6637 32.2484 46.7833 32.0062 46.8651 31.7276C46.9468 31.4461 46.9877 31.1388 46.9877 30.8058C46.9877 30.4728 46.9468 30.167 46.8651 29.8885C46.7833 29.6069 46.6637 29.3647 46.5063 29.1619C46.3519 28.956 46.1627 28.7956 45.9387 28.6805C45.7146 28.5655 45.4603 28.508 45.1758 28.508C44.8912 28.508 44.6369 28.5655 44.4128 28.6805C44.1888 28.7956 43.9981 28.956 43.8407 29.1619C43.6863 29.3647 43.5667 29.6069 43.4819 29.8885C43.4002 30.167 43.3593 30.4728 43.3593 30.8058C43.3593 31.1388 43.4002 31.4461 43.4819 31.7276C43.5667 32.0062 43.6863 32.2484 43.8407 32.4542C43.9981 32.6571 44.1888 32.816 44.4128 32.9311C44.6369 33.0461 44.8912 33.1036 45.1758 33.1036Z" fill="#4E2D2D"/>
<path d="M53.7313 27.3908C53.7344 27.6451 53.6905 27.854 53.5996 28.0175C53.5088 28.178 53.3877 28.3081 53.2363 28.408C53.088 28.5049 52.9154 28.5761 52.7186 28.6215C52.5249 28.6639 52.3251 28.6926 52.1192 28.7078C51.9769 28.7199 51.8301 28.7396 51.6787 28.7668C51.5273 28.791 51.379 28.8304 51.2337 28.8849C51.0884 28.9363 50.9506 29.006 50.8204 29.0938C50.6903 29.1785 50.5737 29.2845 50.4708 29.4116C50.3678 29.5388 50.2831 29.6902 50.2165 29.8658C50.1499 30.0414 50.109 30.2472 50.0938 30.4834C50.1423 30.3259 50.2195 30.1776 50.3254 30.0383C50.4314 29.896 50.5631 29.7734 50.7205 29.6705C50.881 29.5645 51.0657 29.4813 51.2746 29.4207C51.4834 29.3572 51.715 29.3254 51.9694 29.3254C52.3084 29.3254 52.6142 29.3829 52.8867 29.4979C53.1591 29.6099 53.3907 29.7689 53.5815 29.9748C53.7722 30.1806 53.9175 30.4289 54.0174 30.7195C54.1204 31.0101 54.1718 31.3326 54.1718 31.6868C54.1718 32.0803 54.1128 32.4376 53.9947 32.7585C53.8797 33.0794 53.7132 33.3549 53.4952 33.585C53.2802 33.812 53.0168 33.9891 52.705 34.1163C52.3932 34.2404 52.042 34.3025 51.6515 34.3025C51.0823 34.3025 50.6115 34.1859 50.2392 33.9528C49.8668 33.7197 49.5807 33.3398 49.3809 32.813C49.3143 32.6344 49.2628 32.4452 49.2265 32.2453C49.1902 32.0455 49.1629 31.8578 49.1447 31.6822C49.1296 31.5066 49.1205 31.3538 49.1175 31.2236C49.1145 31.0934 49.113 31.0071 49.113 30.9647C49.113 30.4924 49.1674 30.061 49.2764 29.6705C49.3854 29.2769 49.558 28.9348 49.7941 28.6442C50.0333 28.3536 50.3391 28.1189 50.7114 27.9403C51.0869 27.7617 51.541 27.6482 52.0738 27.5997C52.2433 27.5846 52.3629 27.5573 52.4326 27.518C52.5052 27.4756 52.5506 27.4332 52.5688 27.3908H53.7313ZM50.4617 31.6686C50.4617 31.8563 50.4814 32.0425 50.5207 32.2272C50.5631 32.4088 50.6312 32.5723 50.7251 32.7176C50.8189 32.8599 50.9415 32.975 51.0929 33.0628C51.2443 33.1505 51.4305 33.1944 51.6515 33.1944C51.8846 33.1944 52.0768 33.1521 52.2282 33.0673C52.3826 32.9795 52.5052 32.866 52.596 32.7267C52.6869 32.5844 52.7504 32.4224 52.7868 32.2408C52.8231 32.0561 52.8413 31.8654 52.8413 31.6686C52.8413 31.4749 52.8201 31.2932 52.7777 31.1237C52.7353 30.9541 52.6687 30.8073 52.5779 30.6832C52.487 30.556 52.369 30.4576 52.2237 30.388C52.0783 30.3153 51.9027 30.279 51.6969 30.279C51.4759 30.279 51.2867 30.3169 51.1292 30.3925C50.9748 30.4652 50.8477 30.5651 50.7478 30.6923C50.6479 30.8194 50.5752 30.9678 50.5298 31.1373C50.4844 31.3038 50.4617 31.4809 50.4617 31.6686Z" fill="#4E2D2D"/>
<path d="M54.7985 31.6686C54.7985 31.2872 54.856 30.936 54.9711 30.6151C55.0891 30.2941 55.2572 30.0187 55.4751 29.7886C55.6961 29.5555 55.9626 29.3738 56.2744 29.2436C56.5862 29.1134 56.9374 29.0484 57.3279 29.0484C57.7245 29.0484 58.0787 29.1134 58.3906 29.2436C58.7054 29.3738 58.9703 29.5555 59.1853 29.7886C59.4032 30.0187 59.5698 30.2941 59.6848 30.6151C59.7998 30.936 59.8574 31.2872 59.8574 31.6686C59.8574 32.0501 59.7998 32.4013 59.6848 32.7222C59.5698 33.0431 59.4032 33.3201 59.1853 33.5532C58.9703 33.7863 58.7054 33.968 58.3906 34.0981C58.0787 34.2283 57.7245 34.2934 57.3279 34.2934C56.9374 34.2934 56.5862 34.2283 56.2744 34.0981C55.9626 33.968 55.6961 33.7863 55.4751 33.5532C55.2572 33.3201 55.0891 33.0431 54.9711 32.7222C54.856 32.4013 54.7985 32.0501 54.7985 31.6686ZM56.1381 31.6686C56.1381 31.8563 56.1578 32.0425 56.1972 32.2272C56.2396 32.4088 56.3077 32.5723 56.4015 32.7176C56.4954 32.8599 56.618 32.975 56.7694 33.0628C56.9207 33.1505 57.1069 33.1944 57.3279 33.1944C57.558 33.1944 57.7487 33.1521 57.9001 33.0673C58.0545 32.9795 58.1771 32.866 58.268 32.7267C58.3588 32.5844 58.4224 32.4224 58.4587 32.2408C58.498 32.0561 58.5177 31.8654 58.5177 31.6686C58.5177 31.4749 58.498 31.2856 58.4587 31.101C58.4224 30.9163 58.3588 30.7543 58.268 30.6151C58.1771 30.4728 58.0545 30.3592 57.9001 30.2745C57.7487 30.1867 57.558 30.1428 57.3279 30.1428C57.1069 30.1428 56.9207 30.1867 56.7694 30.2745C56.618 30.3623 56.4954 30.4788 56.4015 30.6241C56.3077 30.7664 56.2396 30.9299 56.1972 31.1146C56.1578 31.2962 56.1381 31.4809 56.1381 31.6686Z" fill="#4E2D2D"/>
<path d="M60.752 29.1937H61.9781V29.9021H61.9963C62.0841 29.7537 62.1764 29.6266 62.2733 29.5206C62.3701 29.4116 62.4776 29.3223 62.5957 29.2527C62.7138 29.1831 62.8439 29.1316 62.9862 29.0983C63.1316 29.065 63.295 29.0484 63.4767 29.0484C63.6281 29.0484 63.784 29.0665 63.9444 29.1028C64.1049 29.1392 64.2608 29.1982 64.4122 29.28C64.5666 29.3587 64.7119 29.4631 64.8481 29.5933C64.9844 29.7204 65.1039 29.8779 65.2069 30.0656C65.3098 30.2533 65.3915 30.4728 65.4521 30.724C65.5126 30.9723 65.5429 31.2569 65.5429 31.5778C65.5429 31.9774 65.499 32.3437 65.4112 32.6768C65.3265 33.0098 65.1963 33.2959 65.0207 33.535C64.8481 33.7742 64.6286 33.9604 64.3622 34.0936C64.0988 34.2268 63.7885 34.2934 63.4313 34.2934C63.3071 34.2934 63.1815 34.2813 63.0544 34.2571C62.9272 34.2329 62.8031 34.192 62.682 34.1345C62.5609 34.0769 62.4458 33.9997 62.3368 33.9029C62.2309 33.803 62.137 33.6788 62.0553 33.5305H62.0371V36.0599H60.752V29.1937ZM63.0952 30.2018C62.8894 30.2018 62.7153 30.2457 62.573 30.3335C62.4337 30.4213 62.3202 30.5348 62.2324 30.6741C62.1476 30.8134 62.0856 30.9708 62.0462 31.1464C62.0069 31.322 61.9872 31.496 61.9872 31.6686C61.9872 31.7625 61.9917 31.8654 62.0008 31.9774C62.0129 32.0864 62.0341 32.1984 62.0644 32.3135C62.0947 32.4255 62.1355 32.5345 62.187 32.6404C62.2415 32.7464 62.3096 32.8402 62.3913 32.922C62.4731 33.0037 62.5715 33.0703 62.6865 33.1218C62.8016 33.1702 62.9378 33.1944 63.0952 33.1944C63.2526 33.1944 63.3889 33.1702 63.5039 33.1218C63.619 33.0703 63.7174 33.0037 63.7991 32.922C63.8808 32.8402 63.9474 32.7464 63.9989 32.6404C64.0534 32.5345 64.0958 32.4255 64.1261 32.3135C64.1563 32.1984 64.176 32.0864 64.1851 31.9774C64.1972 31.8654 64.2033 31.7625 64.2033 31.6686C64.2033 31.496 64.1836 31.322 64.1442 31.1464C64.1049 30.9708 64.0413 30.8134 63.9535 30.6741C63.8687 30.5348 63.7552 30.4213 63.6129 30.3335C63.4706 30.2457 63.2981 30.2018 63.0952 30.2018Z" fill="#4E2D2D"/>
<path d="M69.1986 34.0618C69.1017 34.3464 69.0139 34.5931 68.9352 34.802C68.8565 35.0139 68.7777 35.1956 68.699 35.347C68.6233 35.5014 68.5416 35.627 68.4538 35.7239C68.369 35.8238 68.2691 35.9025 68.1541 35.96C68.039 36.0175 67.9043 36.0569 67.7499 36.0781C67.5955 36.1023 67.4124 36.1144 67.2004 36.1144C67.1157 36.1144 67.0354 36.1114 66.9598 36.1053C66.8871 36.1023 66.7993 36.0963 66.6964 36.0872V35.0472C66.7478 35.0533 66.8114 35.0594 66.8871 35.0654C66.9628 35.0715 67.0264 35.0745 67.0778 35.0745C67.2141 35.0745 67.3291 35.0488 67.423 34.9973C67.5168 34.9458 67.591 34.8838 67.6455 34.8111C67.703 34.7415 67.7439 34.6688 67.7681 34.5931C67.7923 34.5174 67.8044 34.4539 67.8044 34.4024L65.9925 29.1937H67.432L68.4947 32.8402H68.5128L69.5255 29.1937H70.9015L69.1986 34.0618Z" fill="#4E2D2D"/>
<path d="M71.2239 33.1036H71.7371C71.8582 32.8766 71.9581 32.6389 72.0368 32.3907C72.1185 32.1394 72.1836 31.8866 72.2321 31.6323C72.2805 31.378 72.3153 31.1297 72.3365 30.8875C72.3577 30.6423 72.3728 30.4122 72.3819 30.1973C72.391 29.9823 72.394 29.7886 72.391 29.616C72.391 29.4434 72.3925 29.3027 72.3955 29.1937H76.2646V33.1036H76.8868V35.3333H75.6788V34.1435H72.4319V35.3333H71.2239V33.1036ZM74.984 33.1036V30.2381H73.5127C73.5127 30.329 73.5112 30.441 73.5081 30.5742C73.5081 30.7074 73.5021 30.8557 73.49 31.0192C73.4809 31.1797 73.4657 31.3507 73.4446 31.5324C73.4264 31.714 73.3976 31.8957 73.3583 32.0773C73.3219 32.259 73.2765 32.4376 73.222 32.6132C73.1706 32.7888 73.1055 32.9522 73.0268 33.1036H74.984Z" fill="#4E2D2D"/>
<path d="M77.3046 31.6686C77.3046 31.2872 77.3621 30.936 77.4771 30.6151C77.5952 30.2941 77.7632 30.0187 77.9812 29.7886C78.2022 29.5555 78.4686 29.3738 78.7804 29.2436C79.0923 29.1134 79.4434 29.0484 79.834 29.0484C80.2306 29.0484 80.5848 29.1134 80.8966 29.2436C81.2115 29.3738 81.4764 29.5555 81.6913 29.7886C81.9093 30.0187 82.0758 30.2941 82.1908 30.6151C82.3059 30.936 82.3634 31.2872 82.3634 31.6686C82.3634 32.0501 82.3059 32.4013 82.1908 32.7222C82.0758 33.0431 81.9093 33.3201 81.6913 33.5532C81.4764 33.7863 81.2115 33.968 80.8966 34.0981C80.5848 34.2283 80.2306 34.2934 79.834 34.2934C79.4434 34.2934 79.0923 34.2283 78.7804 34.0981C78.4686 33.968 78.2022 33.7863 77.9812 33.5532C77.7632 33.3201 77.5952 33.0431 77.4771 32.7222C77.3621 32.4013 77.3046 32.0501 77.3046 31.6686ZM78.6442 31.6686C78.6442 31.8563 78.6639 32.0425 78.7032 32.2272C78.7456 32.4088 78.8137 32.5723 78.9076 32.7176C79.0014 32.8599 79.124 32.975 79.2754 33.0628C79.4268 33.1505 79.613 33.1944 79.834 33.1944C80.0641 33.1944 80.2548 33.1521 80.4062 33.0673C80.5606 32.9795 80.6832 32.866 80.774 32.7267C80.8648 32.5844 80.9284 32.4224 80.9647 32.2408C81.0041 32.0561 81.0238 31.8654 81.0238 31.6686C81.0238 31.4749 81.0041 31.2856 80.9647 31.101C80.9284 30.9163 80.8648 30.7543 80.774 30.6151C80.6832 30.4728 80.5606 30.3592 80.4062 30.2745C80.2548 30.1867 80.0641 30.1428 79.834 30.1428C79.613 30.1428 79.4268 30.1867 79.2754 30.2745C79.124 30.3623 79.0014 30.4788 78.9076 30.6241C78.8137 30.7664 78.7456 30.9299 78.7032 31.1146C78.6639 31.2962 78.6442 31.4809 78.6442 31.6686Z" fill="#4E2D2D"/>
<path d="M84.6158 31.1373H85.6058C85.7511 31.1373 85.8722 31.1267 85.9691 31.1055C86.066 31.0813 86.1417 31.048 86.1962 31.0056C86.2537 30.9602 86.293 30.9057 86.3142 30.8421C86.3385 30.7755 86.3506 30.6983 86.3506 30.6105C86.3506 30.5379 86.3385 30.4713 86.3142 30.4107C86.293 30.3471 86.2552 30.2941 86.2007 30.2518C86.1462 30.2064 86.0736 30.1715 85.9827 30.1473C85.8919 30.1201 85.7784 30.1064 85.6421 30.1064H84.6158V31.1373ZM83.3307 29.1937H85.8919C86.119 29.1937 86.3369 29.2134 86.5458 29.2527C86.7578 29.2921 86.9439 29.3617 87.1044 29.4616C87.2649 29.5585 87.392 29.6917 87.4859 29.8612C87.5827 30.0277 87.6312 30.2397 87.6312 30.497C87.6312 30.6453 87.6145 30.774 87.5812 30.883C87.5509 30.992 87.5086 31.0858 87.4541 31.1645C87.3996 31.2402 87.336 31.3053 87.2633 31.3598C87.1937 31.4113 87.121 31.4552 87.0454 31.4915C87.2936 31.5793 87.4828 31.7201 87.613 31.9138C87.7432 32.1046 87.8083 32.3331 87.8083 32.5996C87.8083 32.8327 87.7674 33.0446 87.6857 33.2353C87.607 33.423 87.4934 33.585 87.3451 33.7212C87.1998 33.8544 87.0211 33.9589 86.8092 34.0346C86.6003 34.1072 86.3657 34.1435 86.1053 34.1435H83.3307V29.1937ZM84.6158 33.2308H85.6058C85.7905 33.2308 85.9388 33.2111 86.0508 33.1717C86.1659 33.1324 86.2537 33.0824 86.3142 33.0219C86.3778 32.9613 86.4187 32.8947 86.4368 32.8221C86.458 32.7494 86.4686 32.6813 86.4686 32.6177C86.4686 32.4966 86.452 32.3967 86.4187 32.318C86.3884 32.2363 86.3385 32.1712 86.2688 32.1227C86.2022 32.0743 86.1129 32.041 86.0009 32.0228C85.8919 32.0047 85.7602 31.9956 85.6058 31.9956H84.6158V33.2308Z" fill="#4E2D2D"/>
<path d="M92.8444 33.1672C92.8444 33.3155 92.852 33.4382 92.8671 33.535C92.8853 33.6289 92.908 33.7046 92.9353 33.7621C92.9625 33.8166 92.9928 33.8575 93.0261 33.8847C93.0624 33.9089 93.1003 33.9271 93.1396 33.9392V34.1435H91.7182C91.694 34.086 91.6668 34.0103 91.6365 33.9165C91.6092 33.8196 91.5956 33.7031 91.5956 33.5668C91.4957 33.6698 91.3973 33.7651 91.3004 33.8529C91.2066 33.9407 91.1006 34.0179 90.9826 34.0845C90.8645 34.1481 90.7283 34.198 90.5739 34.2344C90.4195 34.2737 90.2333 34.2934 90.0153 34.2934C89.7943 34.2934 89.5899 34.2601 89.4022 34.1935C89.2176 34.1299 89.0571 34.0346 88.9209 33.9074C88.7846 33.7803 88.6787 33.6213 88.603 33.4306C88.5273 33.2399 88.4895 33.0189 88.4895 32.7676C88.4895 32.5647 88.5212 32.377 88.5848 32.2045C88.6484 32.0289 88.7377 31.876 88.8527 31.7458C88.9708 31.6126 89.1131 31.5036 89.2796 31.4188C89.4492 31.331 89.6384 31.272 89.8473 31.2417L91.1052 31.0556C91.1506 31.0495 91.199 31.0404 91.2505 31.0283C91.305 31.0162 91.3549 30.9965 91.4003 30.9693C91.4458 30.939 91.4836 30.8996 91.5139 30.8512C91.5442 30.7997 91.5593 30.7316 91.5593 30.6468C91.5593 30.5651 91.5457 30.4909 91.5184 30.4243C91.4942 30.3547 91.4518 30.2957 91.3913 30.2472C91.3307 30.1958 91.249 30.1564 91.146 30.1292C91.0461 30.1019 90.9205 30.0883 90.7691 30.0883C90.5966 30.0883 90.4573 30.1064 90.3513 30.1428C90.2484 30.1761 90.1667 30.2245 90.1061 30.2881C90.0456 30.3486 90.0017 30.4213 89.9744 30.5061C89.9472 30.5878 89.9275 30.6756 89.9154 30.7695H88.6302C88.6302 30.7089 88.6393 30.6257 88.6575 30.5197C88.6787 30.4107 88.715 30.2926 88.7665 30.1655C88.821 30.0383 88.8951 29.9097 88.989 29.7795C89.0859 29.6493 89.2115 29.5312 89.3659 29.4253C89.5233 29.3163 89.7141 29.227 89.9381 29.1573C90.1621 29.0877 90.43 29.0514 90.7419 29.0484C91.1839 29.0484 91.5411 29.0938 91.8136 29.1846C92.0891 29.2724 92.3025 29.3889 92.4539 29.5343C92.6083 29.6765 92.7112 29.837 92.7627 30.0156C92.8172 30.1912 92.8444 30.3668 92.8444 30.5424V33.1672ZM91.5593 31.7276C91.4806 31.77 91.4019 31.8094 91.3231 31.8457C91.2444 31.879 91.14 31.9078 91.0098 31.932L90.6692 31.9956C90.5209 32.0228 90.3907 32.0546 90.2787 32.0909C90.1667 32.1273 90.0728 32.1757 89.9971 32.2363C89.9245 32.2938 89.8685 32.3649 89.8291 32.4497C89.7928 32.5345 89.7746 32.6404 89.7746 32.7676C89.7746 32.8735 89.7913 32.9659 89.8246 33.0446C89.8579 33.1203 89.9033 33.1838 89.9608 33.2353C90.0213 33.2838 90.091 33.3201 90.1697 33.3443C90.2484 33.3685 90.3332 33.3806 90.424 33.3806C90.4724 33.3806 90.5345 33.3761 90.6102 33.367C90.6859 33.3549 90.7661 33.3337 90.8509 33.3034C90.9356 33.2732 91.0204 33.2323 91.1052 33.1808C91.1899 33.1263 91.2656 33.0567 91.3322 32.9719C91.3988 32.8872 91.4533 32.7842 91.4957 32.6631C91.5381 32.539 91.5593 32.3937 91.5593 32.2272V31.7276Z" fill="#4E2D2D"/>
<path d="M94.0206 29.1937H95.3058V30.9829H97.1949V29.1937H98.4755V34.1435H97.1949V32.0228H95.3058V34.1435H94.0206V29.1937Z" fill="#4E2D2D"/>
<path d="M99.7062 29.1937H100.991V32.2453H101.009L102.812 29.1937H104.161V34.1435H102.88V31.16H102.858L101.109 34.1435H99.7062V29.1937Z" fill="#4E2D2D"/>
<path d="M106.314 32.0682C106.314 32.1136 106.318 32.1742 106.327 32.2499C106.336 32.3256 106.354 32.4073 106.382 32.4951C106.409 32.5829 106.448 32.6722 106.5 32.763C106.551 32.8508 106.619 32.9311 106.704 33.0037C106.792 33.0764 106.898 33.1354 107.022 33.1808C107.149 33.2262 107.301 33.2489 107.476 33.2489C107.567 33.2489 107.656 33.2368 107.744 33.2126C107.835 33.1854 107.918 33.1475 107.994 33.0991C108.069 33.0476 108.135 32.9871 108.189 32.9174C108.247 32.8448 108.287 32.763 108.312 32.6722H109.642C109.642 32.763 109.623 32.8675 109.583 32.9856C109.544 33.1006 109.483 33.2187 109.402 33.3398C109.323 33.4578 109.223 33.5744 109.102 33.6894C108.981 33.8045 108.837 33.9074 108.67 33.9982C108.504 34.086 108.315 34.1572 108.103 34.2117C107.894 34.2662 107.661 34.2934 107.403 34.2934C107.073 34.2934 106.763 34.2435 106.472 34.1435C106.185 34.0467 105.932 33.8923 105.714 33.6803C105.499 33.4654 105.33 33.1884 105.206 32.8493C105.081 32.5102 105.019 32.0985 105.019 31.6141C105.019 31.2781 105.063 30.9556 105.151 30.6468C105.242 30.335 105.381 30.061 105.569 29.8249C105.76 29.5888 106.002 29.4011 106.295 29.2618C106.592 29.1195 106.948 29.0484 107.363 29.0484C107.802 29.0484 108.171 29.121 108.471 29.2663C108.77 29.4086 109.011 29.6115 109.193 29.8748C109.377 30.1382 109.509 30.4561 109.588 30.8285C109.666 31.2009 109.706 31.6141 109.706 32.0682H106.314ZM108.371 31.2145C108.371 30.9965 108.337 30.8149 108.271 30.6696C108.207 30.5242 108.125 30.4092 108.026 30.3244C107.929 30.2366 107.821 30.1761 107.703 30.1428C107.585 30.1064 107.472 30.0883 107.363 30.0883C107.257 30.0883 107.145 30.1064 107.027 30.1428C106.908 30.1761 106.799 30.2366 106.7 30.3244C106.603 30.4092 106.521 30.5242 106.454 30.6696C106.391 30.8149 106.359 30.9965 106.359 31.2145H108.371Z" fill="#4E2D2D"/>
<path d="M113.157 29.1937H114.442V32.2453H114.46L116.263 29.1937H117.612V34.1435H116.331V31.16H116.309L114.56 34.1435H113.157V29.1937Z" fill="#4E2D2D"/>
<path d="M122.503 30.2381H121.004V29.1937H125.282V30.2381H123.783V34.1435H122.503V30.2381Z" fill="#4E2D2D"/>
<path d="M125.786 31.6686C125.786 31.2872 125.844 30.936 125.959 30.6151C126.077 30.2941 126.245 30.0187 126.463 29.7886C126.684 29.5555 126.95 29.3738 127.262 29.2436C127.574 29.1134 127.925 29.0484 128.316 29.0484C128.712 29.0484 129.066 29.1134 129.378 29.2436C129.693 29.3738 129.958 29.5555 130.173 29.7886C130.391 30.0187 130.557 30.2941 130.672 30.6151C130.787 30.936 130.845 31.2872 130.845 31.6686C130.845 32.0501 130.787 32.4013 130.672 32.7222C130.557 33.0431 130.391 33.3201 130.173 33.5532C129.958 33.7863 129.693 33.968 129.378 34.0981C129.066 34.2283 128.712 34.2934 128.316 34.2934C127.925 34.2934 127.574 34.2283 127.262 34.0981C126.95 33.968 126.684 33.7863 126.463 33.5532C126.245 33.3201 126.077 33.0431 125.959 32.7222C125.844 32.4013 125.786 32.0501 125.786 31.6686ZM127.126 31.6686C127.126 31.8563 127.145 32.0425 127.185 32.2272C127.227 32.4088 127.295 32.5723 127.389 32.7176C127.483 32.8599 127.606 32.975 127.757 33.0628C127.908 33.1505 128.095 33.1944 128.316 33.1944C128.546 33.1944 128.736 33.1521 128.888 33.0673C129.042 32.9795 129.165 32.866 129.256 32.7267C129.346 32.5844 129.41 32.4224 129.446 32.2408C129.486 32.0561 129.505 31.8654 129.505 31.6686C129.505 31.4749 129.486 31.2856 129.446 31.101C129.41 30.9163 129.346 30.7543 129.256 30.6151C129.165 30.4728 129.042 30.3592 128.888 30.2745C128.736 30.1867 128.546 30.1428 128.316 30.1428C128.095 30.1428 127.908 30.1867 127.757 30.2745C127.606 30.3623 127.483 30.4788 127.389 30.6241C127.295 30.7664 127.227 30.9299 127.185 31.1146C127.145 31.2962 127.126 31.4809 127.126 31.6686Z" fill="#4E2D2D"/>
<path d="M133.097 31.1373H134.087C134.233 31.1373 134.354 31.1267 134.451 31.1055C134.548 31.0813 134.623 31.048 134.678 31.0056C134.735 30.9602 134.775 30.9057 134.796 30.8421C134.82 30.7755 134.832 30.6983 134.832 30.6105C134.832 30.5379 134.82 30.4713 134.796 30.4107C134.775 30.3471 134.737 30.2941 134.682 30.2518C134.628 30.2064 134.555 30.1715 134.464 30.1473C134.373 30.1201 134.26 30.1064 134.124 30.1064H133.097V31.1373ZM131.812 29.1937H134.373C134.601 29.1937 134.818 29.2134 135.027 29.2527C135.239 29.2921 135.425 29.3617 135.586 29.4616C135.746 29.5585 135.874 29.6917 135.967 29.8612C136.064 30.0277 136.113 30.2397 136.113 30.497C136.113 30.6453 136.096 30.774 136.063 30.883C136.033 30.992 135.99 31.0858 135.936 31.1645C135.881 31.2402 135.818 31.3053 135.745 31.3598C135.675 31.4113 135.603 31.4552 135.527 31.4915C135.775 31.5793 135.964 31.7201 136.095 31.9138C136.225 32.1046 136.29 32.3331 136.29 32.5996C136.29 32.8327 136.249 33.0446 136.167 33.2353C136.089 33.423 135.975 33.585 135.827 33.7212C135.681 33.8544 135.503 33.9589 135.291 34.0346C135.082 34.1072 134.847 34.1435 134.587 34.1435H131.812V29.1937ZM133.097 33.2308H134.087C134.272 33.2308 134.42 33.2111 134.532 33.1717C134.647 33.1324 134.735 33.0824 134.796 33.0219C134.859 32.9613 134.9 32.8947 134.918 32.8221C134.94 32.7494 134.95 32.6813 134.95 32.6177C134.95 32.4966 134.934 32.3967 134.9 32.318C134.87 32.2363 134.82 32.1712 134.75 32.1227C134.684 32.0743 134.594 32.041 134.482 32.0228C134.373 32.0047 134.242 31.9956 134.087 31.9956H133.097V33.2308Z" fill="#4E2D2D"/>
<path d="M141.326 33.1672C141.326 33.3155 141.334 33.4382 141.349 33.535C141.367 33.6289 141.39 33.7046 141.417 33.7621C141.444 33.8166 141.474 33.8575 141.508 33.8847C141.544 33.9089 141.582 33.9271 141.621 33.9392V34.1435H140.2C140.176 34.086 140.148 34.0103 140.118 33.9165C140.091 33.8196 140.077 33.7031 140.077 33.5668C139.977 33.6698 139.879 33.7651 139.782 33.8529C139.688 33.9407 139.582 34.0179 139.464 34.0845C139.346 34.1481 139.21 34.198 139.055 34.2344C138.901 34.2737 138.715 34.2934 138.497 34.2934C138.276 34.2934 138.071 34.2601 137.884 34.1935C137.699 34.1299 137.539 34.0346 137.402 33.9074C137.266 33.7803 137.16 33.6213 137.085 33.4306C137.009 33.2399 136.971 33.0189 136.971 32.7676C136.971 32.5647 137.003 32.377 137.066 32.2045C137.13 32.0289 137.219 31.876 137.334 31.7458C137.452 31.6126 137.595 31.5036 137.761 31.4188C137.931 31.331 138.12 31.272 138.329 31.2417L139.587 31.0556C139.632 31.0495 139.681 31.0404 139.732 31.0283C139.787 31.0162 139.836 30.9965 139.882 30.9693C139.927 30.939 139.965 30.8996 139.995 30.8512C140.026 30.7997 140.041 30.7316 140.041 30.6468C140.041 30.5651 140.027 30.4909 140 30.4243C139.976 30.3547 139.933 30.2957 139.873 30.2472C139.812 30.1958 139.731 30.1564 139.628 30.1292C139.528 30.1019 139.402 30.0883 139.251 30.0883C139.078 30.0883 138.939 30.1064 138.833 30.1428C138.73 30.1761 138.648 30.2245 138.588 30.2881C138.527 30.3486 138.483 30.4213 138.456 30.5061C138.429 30.5878 138.409 30.6756 138.397 30.7695H137.112C137.112 30.7089 137.121 30.6257 137.139 30.5197C137.16 30.4107 137.197 30.2926 137.248 30.1655C137.303 30.0383 137.377 29.9097 137.471 29.7795C137.567 29.6493 137.693 29.5312 137.847 29.4253C138.005 29.3163 138.196 29.227 138.42 29.1573C138.644 29.0877 138.912 29.0514 139.223 29.0484C139.665 29.0484 140.023 29.0938 140.295 29.1846C140.571 29.2724 140.784 29.3889 140.935 29.5343C141.09 29.6765 141.193 29.837 141.244 30.0156C141.299 30.1912 141.326 30.3668 141.326 30.5424V33.1672ZM140.041 31.7276C139.962 31.77 139.883 31.8094 139.805 31.8457C139.726 31.879 139.622 31.9078 139.491 31.932L139.151 31.9956C139.002 32.0228 138.872 32.0546 138.76 32.0909C138.648 32.1273 138.554 32.1757 138.479 32.2363C138.406 32.2938 138.35 32.3649 138.311 32.4497C138.274 32.5345 138.256 32.6404 138.256 32.7676C138.256 32.8735 138.273 32.9659 138.306 33.0446C138.339 33.1203 138.385 33.1838 138.442 33.2353C138.503 33.2838 138.573 33.3201 138.651 33.3443C138.73 33.3685 138.815 33.3806 138.906 33.3806C138.954 33.3806 139.016 33.3761 139.092 33.367C139.167 33.3549 139.248 33.3337 139.332 33.3034C139.417 33.2732 139.502 33.2323 139.587 33.1808C139.671 33.1263 139.747 33.0567 139.814 32.9719C139.88 32.8872 139.935 32.7842 139.977 32.6631C140.02 32.539 140.041 32.3937 140.041 32.2272V31.7276Z" fill="#4E2D2D"/>
<path d="M142.466 29.1937H143.692V29.9021H143.71C143.798 29.7537 143.89 29.6266 143.987 29.5206C144.084 29.4116 144.191 29.3223 144.31 29.2527C144.428 29.1831 144.558 29.1316 144.7 29.0983C144.845 29.065 145.009 29.0484 145.191 29.0484C145.342 29.0484 145.498 29.0665 145.658 29.1028C145.819 29.1392 145.975 29.1982 146.126 29.28C146.28 29.3587 146.426 29.4631 146.562 29.5933C146.698 29.7204 146.818 29.8779 146.921 30.0656C147.024 30.2533 147.105 30.4728 147.166 30.724C147.226 30.9723 147.257 31.2569 147.257 31.5778C147.257 31.9774 147.213 32.3437 147.125 32.6768C147.04 33.0098 146.91 33.2959 146.735 33.535C146.562 33.7742 146.342 33.9604 146.076 34.0936C145.813 34.2268 145.502 34.2934 145.145 34.2934C145.021 34.2934 144.895 34.2813 144.768 34.2571C144.641 34.2329 144.517 34.192 144.396 34.1345C144.275 34.0769 144.16 33.9997 144.051 33.9029C143.945 33.803 143.851 33.6788 143.769 33.5305H143.751V36.0599H142.466V29.1937ZM144.809 30.2018C144.603 30.2018 144.429 30.2457 144.287 30.3335C144.148 30.4213 144.034 30.5348 143.946 30.6741C143.861 30.8134 143.799 30.9708 143.76 31.1464C143.721 31.322 143.701 31.496 143.701 31.6686C143.701 31.7625 143.706 31.8654 143.715 31.9774C143.727 32.0864 143.748 32.1984 143.778 32.3135C143.809 32.4255 143.849 32.5345 143.901 32.6404C143.955 32.7464 144.023 32.8402 144.105 32.922C144.187 33.0037 144.285 33.0703 144.4 33.1218C144.515 33.1702 144.652 33.1944 144.809 33.1944C144.966 33.1944 145.103 33.1702 145.218 33.1218C145.333 33.0703 145.431 33.0037 145.513 32.922C145.595 32.8402 145.661 32.7464 145.713 32.6404C145.767 32.5345 145.81 32.4255 145.84 32.3135C145.87 32.1984 145.89 32.0864 145.899 31.9774C145.911 31.8654 145.917 31.7625 145.917 31.6686C145.917 31.496 145.897 31.322 145.858 31.1464C145.819 30.9708 145.755 30.8134 145.667 30.6741C145.583 30.5348 145.469 30.4213 145.327 30.3335C145.184 30.2457 145.012 30.2018 144.809 30.2018Z" fill="#4E2D2D"/>
<path d="M153.151 29.1937H154.436V34.1435H153.151V29.1937ZM148.188 29.1937H149.473V30.9148H150.64C150.946 30.9148 151.218 30.9466 151.457 31.0101C151.7 31.0737 151.904 31.1721 152.07 31.3053C152.237 31.4385 152.364 31.6081 152.452 31.8139C152.54 32.0168 152.584 32.2574 152.584 32.536C152.584 32.7873 152.547 33.0022 152.475 33.1808C152.402 33.3594 152.308 33.5093 152.193 33.6304C152.081 33.7485 151.955 33.8423 151.816 33.9119C151.677 33.9786 151.541 34.03 151.407 34.0663C151.274 34.0997 151.15 34.1208 151.035 34.1299C150.923 34.139 150.837 34.1435 150.776 34.1435H148.188V29.1937ZM149.473 33.1763H150.413C150.513 33.1763 150.611 33.1687 150.708 33.1536C150.808 33.1354 150.897 33.1036 150.976 33.0582C151.058 33.0098 151.123 32.9447 151.171 32.8629C151.22 32.7782 151.244 32.6692 151.244 32.536C151.244 32.4058 151.218 32.2983 151.167 32.2136C151.118 32.1288 151.05 32.0622 150.962 32.0137C150.878 31.9653 150.778 31.932 150.663 31.9138C150.551 31.8926 150.431 31.882 150.304 31.882H149.473V33.1763Z" fill="#4E2D2D"/>
<path d="M157.824 33.1036H158.337C158.458 32.8766 158.558 32.6389 158.637 32.3907C158.719 32.1394 158.784 31.8866 158.832 31.6323C158.881 31.378 158.915 31.1297 158.937 30.8875C158.958 30.6423 158.973 30.4122 158.982 30.1973C158.991 29.9823 158.994 29.7886 158.991 29.616C158.991 29.4434 158.993 29.3027 158.996 29.1937H162.865V33.1036H163.487V35.3333H162.279V34.1435H159.032V35.3333H157.824V33.1036ZM161.584 33.1036V30.2381H160.113C160.113 30.329 160.111 30.441 160.108 30.5742C160.108 30.7074 160.102 30.8557 160.09 31.0192C160.081 31.1797 160.066 31.3507 160.045 31.5324C160.027 31.714 159.998 31.8957 159.958 32.0773C159.922 32.259 159.877 32.4376 159.822 32.6132C159.771 32.7888 159.706 32.9522 159.627 33.1036H161.584Z" fill="#4E2D2D"/>
<path d="M168.918 34.1435H167.638V30.2381H166.121L166.094 31.16C166.078 31.6777 166.045 32.1318 165.994 32.5224C165.942 32.9129 165.857 33.2399 165.739 33.5032C165.624 33.7636 165.467 33.9604 165.267 34.0936C165.07 34.2268 164.817 34.2934 164.509 34.2934C164.363 34.2934 164.236 34.2843 164.127 34.2662C164.018 34.251 163.929 34.2283 163.859 34.198V33.1218C163.902 33.14 163.955 33.1566 164.018 33.1717C164.085 33.1869 164.165 33.1944 164.259 33.1944C164.356 33.1944 164.442 33.1657 164.518 33.1082C164.593 33.0476 164.659 32.9401 164.713 32.7857C164.768 32.6283 164.81 32.4118 164.84 32.1364C164.87 31.8609 164.89 31.5051 164.899 31.0692L164.936 29.1937H168.918V34.1435Z" fill="#4E2D2D"/>
<path d="M174.731 34.1435H173.441V32.3225H172.601C172.416 32.3225 172.257 32.3301 172.124 32.3452C171.994 32.3574 171.887 32.3891 171.802 32.4406C171.717 32.489 171.652 32.5617 171.607 32.6586C171.564 32.7555 171.54 32.8872 171.534 33.0537L171.516 33.5305C171.51 33.6001 171.501 33.6909 171.488 33.803C171.479 33.915 171.451 34.0285 171.402 34.1435H170.044C170.084 34.0769 170.116 34.0134 170.14 33.9528C170.164 33.8892 170.182 33.8287 170.194 33.7712C170.209 33.7106 170.22 33.6501 170.226 33.5895C170.235 33.529 170.243 33.4654 170.249 33.3988L170.312 32.8039C170.327 32.6707 170.346 32.5557 170.367 32.4588C170.388 32.3619 170.423 32.2786 170.471 32.209C170.52 32.1364 170.586 32.0743 170.671 32.0228C170.756 31.9714 170.869 31.9244 171.012 31.882C170.966 31.8699 170.915 31.8533 170.857 31.8321C170.803 31.8079 170.744 31.7776 170.68 31.7413C170.62 31.7019 170.558 31.6535 170.494 31.596C170.433 31.5354 170.376 31.4612 170.321 31.3734C170.282 31.3159 170.25 31.2554 170.226 31.1918C170.205 31.1252 170.188 31.0616 170.176 31.0011C170.164 30.9375 170.156 30.8784 170.153 30.824C170.15 30.7695 170.149 30.7225 170.149 30.6832C170.149 30.5076 170.17 30.3517 170.212 30.2154C170.255 30.0762 170.309 29.9551 170.376 29.8521C170.442 29.7492 170.518 29.6614 170.603 29.5888C170.688 29.5161 170.774 29.4571 170.862 29.4116C170.959 29.3572 171.066 29.3163 171.184 29.289C171.302 29.2588 171.417 29.2376 171.529 29.2255C171.641 29.2103 171.746 29.2012 171.843 29.1982C171.94 29.1952 172.015 29.1937 172.07 29.1937H174.731V34.1435ZM173.441 30.1609H172.406C172.297 30.1609 172.188 30.164 172.079 30.17C171.97 30.1761 171.871 30.2003 171.784 30.2427C171.699 30.282 171.629 30.3456 171.575 30.4334C171.523 30.5182 171.498 30.6393 171.498 30.7967C171.498 30.9511 171.523 31.0692 171.575 31.1509C171.629 31.2327 171.697 31.2932 171.779 31.3326C171.864 31.3719 171.958 31.3946 172.061 31.4007C172.164 31.4067 172.267 31.4098 172.369 31.4098H173.441V30.1609Z" fill="#4E2D2D"/>
<path d="M181.443 30.942C181.418 30.8118 181.385 30.6983 181.343 30.6014C181.3 30.5015 181.244 30.4183 181.175 30.3517C181.108 30.282 181.025 30.2306 180.925 30.1973C180.828 30.1609 180.71 30.1428 180.571 30.1428C180.356 30.1428 180.183 30.1927 180.053 30.2926C179.926 30.3925 179.828 30.5182 179.758 30.6696C179.688 30.8209 179.641 30.9859 179.617 31.1645C179.596 31.3432 179.585 31.5112 179.585 31.6686C179.585 31.8321 179.594 32.0047 179.613 32.1863C179.631 32.3649 179.673 32.5299 179.74 32.6813C179.806 32.8296 179.905 32.9522 180.035 33.0491C180.165 33.146 180.344 33.1944 180.571 33.1944C180.719 33.1944 180.848 33.1657 180.957 33.1082C181.066 33.0476 181.157 32.9734 181.229 32.8856C181.302 32.7978 181.355 32.704 181.388 32.6041C181.425 32.5042 181.443 32.4134 181.443 32.3316H182.782C182.782 32.4134 182.767 32.5193 182.737 32.6495C182.71 32.7797 182.663 32.9174 182.596 33.0628C182.53 33.2081 182.44 33.3549 182.328 33.5032C182.219 33.6486 182.081 33.7803 181.915 33.8983C181.752 34.0134 181.559 34.1072 181.338 34.1799C181.117 34.2556 180.861 34.2934 180.571 34.2934C180.192 34.2934 179.858 34.2359 179.567 34.1208C179.28 34.0058 179.037 33.8378 178.841 33.6168C178.647 33.3927 178.499 33.1172 178.396 32.7903C178.296 32.4633 178.246 32.0894 178.246 31.6686C178.246 31.2478 178.3 30.8754 178.409 30.5515C178.521 30.2245 178.679 29.9505 178.881 29.7295C179.084 29.5055 179.328 29.336 179.613 29.2209C179.9 29.1059 180.22 29.0484 180.571 29.0484C180.722 29.0484 180.878 29.0605 181.039 29.0847C181.202 29.1089 181.362 29.1513 181.52 29.2118C181.677 29.2694 181.827 29.345 181.969 29.4389C182.115 29.5327 182.243 29.6508 182.355 29.7931C182.471 29.9324 182.564 30.0974 182.637 30.2881C182.713 30.4758 182.761 30.6938 182.782 30.942H181.443Z" fill="#4E2D2D"/>
<path d="M188.681 29.1937H189.966V34.1435H188.681V29.1937ZM183.718 29.1937H185.003V30.9148H186.17C186.476 30.9148 186.748 30.9466 186.987 31.0101C187.23 31.0737 187.434 31.1721 187.601 31.3053C187.767 31.4385 187.894 31.6081 187.982 31.8139C188.07 32.0168 188.114 32.2574 188.114 32.536C188.114 32.7873 188.077 33.0022 188.005 33.1808C187.932 33.3594 187.838 33.5093 187.723 33.6304C187.611 33.7485 187.485 33.8423 187.346 33.9119C187.207 33.9786 187.071 34.03 186.938 34.0663C186.804 34.0997 186.68 34.1208 186.565 34.1299C186.453 34.139 186.367 34.1435 186.306 34.1435H183.718V29.1937ZM185.003 33.1763H185.943C186.043 33.1763 186.141 33.1687 186.238 33.1536C186.338 33.1354 186.427 33.1036 186.506 33.0582C186.588 33.0098 186.653 32.9447 186.701 32.8629C186.75 32.7782 186.774 32.6692 186.774 32.536C186.774 32.4058 186.748 32.2983 186.697 32.2136C186.648 32.1288 186.58 32.0622 186.492 32.0137C186.408 31.9653 186.308 31.932 186.193 31.9138C186.081 31.8926 185.961 31.882 185.834 31.882H185.003V33.1763Z" fill="#4E2D2D"/>
<path d="M191.156 29.1937H192.382V29.9021H192.401C192.488 29.7537 192.581 29.6266 192.678 29.5206C192.774 29.4116 192.882 29.3223 193 29.2527C193.118 29.1831 193.248 29.1316 193.391 29.0983C193.536 29.065 193.699 29.0484 193.881 29.0484C194.032 29.0484 194.188 29.0665 194.349 29.1028C194.509 29.1392 194.665 29.1982 194.816 29.28C194.971 29.3587 195.116 29.4631 195.252 29.5933C195.389 29.7204 195.508 29.8779 195.611 30.0656C195.714 30.2533 195.796 30.4728 195.856 30.724C195.917 30.9723 195.947 31.2569 195.947 31.5778C195.947 31.9774 195.903 32.3437 195.816 32.6768C195.731 33.0098 195.601 33.2959 195.425 33.535C195.252 33.7742 195.033 33.9604 194.767 34.0936C194.503 34.2268 194.193 34.2934 193.836 34.2934C193.711 34.2934 193.586 34.2813 193.459 34.2571C193.331 34.2329 193.207 34.192 193.086 34.1345C192.965 34.0769 192.85 33.9997 192.741 33.9029C192.635 33.803 192.541 33.6788 192.46 33.5305H192.441V36.0599H191.156V29.1937ZM193.5 30.2018C193.294 30.2018 193.12 30.2457 192.977 30.3335C192.838 30.4213 192.724 30.5348 192.637 30.6741C192.552 30.8134 192.49 30.9708 192.451 31.1464C192.411 31.322 192.391 31.496 192.391 31.6686C192.391 31.7625 192.396 31.8654 192.405 31.9774C192.417 32.0864 192.438 32.1984 192.469 32.3135C192.499 32.4255 192.54 32.5345 192.591 32.6404C192.646 32.7464 192.714 32.8402 192.796 32.922C192.877 33.0037 192.976 33.0703 193.091 33.1218C193.206 33.1702 193.342 33.1944 193.5 33.1944C193.657 33.1944 193.793 33.1702 193.908 33.1218C194.023 33.0703 194.122 33.0037 194.203 32.922C194.285 32.8402 194.352 32.7464 194.403 32.6404C194.458 32.5345 194.5 32.4255 194.53 32.3135C194.561 32.1984 194.58 32.0864 194.589 31.9774C194.602 31.8654 194.608 31.7625 194.608 31.6686C194.608 31.496 194.588 31.322 194.549 31.1464C194.509 30.9708 194.446 30.8134 194.358 30.6741C194.273 30.5348 194.16 30.4213 194.017 30.3335C193.875 30.2457 193.702 30.2018 193.5 30.2018Z" fill="#4E2D2D"/>
<path d="M196.583 31.6686C196.583 31.2872 196.64 30.936 196.756 30.6151C196.874 30.2941 197.042 30.0187 197.26 29.7886C197.481 29.5555 197.747 29.3738 198.059 29.2436C198.371 29.1134 198.722 29.0484 199.112 29.0484C199.509 29.0484 199.863 29.1134 200.175 29.2436C200.49 29.3738 200.755 29.5555 200.97 29.7886C201.188 30.0187 201.354 30.2941 201.469 30.6151C201.584 30.936 201.642 31.2872 201.642 31.6686C201.642 32.0501 201.584 32.4013 201.469 32.7222C201.354 33.0431 201.188 33.3201 200.97 33.5532C200.755 33.7863 200.49 33.968 200.175 34.0981C199.863 34.2283 199.509 34.2934 199.112 34.2934C198.722 34.2934 198.371 34.2283 198.059 34.0981C197.747 33.968 197.481 33.7863 197.26 33.5532C197.042 33.3201 196.874 33.0431 196.756 32.7222C196.64 32.4013 196.583 32.0501 196.583 31.6686ZM197.923 31.6686C197.923 31.8563 197.942 32.0425 197.982 32.2272C198.024 32.4088 198.092 32.5723 198.186 32.7176C198.28 32.8599 198.402 32.975 198.554 33.0628C198.705 33.1505 198.891 33.1944 199.112 33.1944C199.342 33.1944 199.533 33.1521 199.685 33.0673C199.839 32.9795 199.962 32.866 200.052 32.7267C200.143 32.5844 200.207 32.4224 200.243 32.2408C200.283 32.0561 200.302 31.8654 200.302 31.6686C200.302 31.4749 200.283 31.2856 200.243 31.101C200.207 30.9163 200.143 30.7543 200.052 30.6151C199.962 30.4728 199.839 30.3592 199.685 30.2745C199.533 30.1867 199.342 30.1428 199.112 30.1428C198.891 30.1428 198.705 30.1867 198.554 30.2745C198.402 30.3623 198.28 30.4788 198.186 30.6241C198.092 30.7664 198.024 30.9299 197.982 31.1146C197.942 31.2962 197.923 31.4809 197.923 31.6686Z" fill="#4E2D2D"/>
<path d="M202.146 33.1036H202.659C202.78 32.8766 202.88 32.6389 202.959 32.3907C203.041 32.1394 203.106 31.8866 203.154 31.6323C203.202 31.378 203.237 31.1297 203.258 30.8875C203.28 30.6423 203.295 30.4122 203.304 30.1973C203.313 29.9823 203.316 29.7886 203.313 29.616C203.313 29.4434 203.314 29.3027 203.318 29.1937H207.187V33.1036H207.809V35.3333H206.601V34.1435H203.354V35.3333H202.146V33.1036ZM205.906 33.1036V30.2381H204.435C204.435 30.329 204.433 30.441 204.43 30.5742C204.43 30.7074 204.424 30.8557 204.412 31.0192C204.403 31.1797 204.388 31.3507 204.367 31.5324C204.348 31.714 204.32 31.8957 204.28 32.0773C204.244 32.259 204.199 32.4376 204.144 32.6132C204.093 32.7888 204.027 32.9522 203.949 33.1036H205.906Z" fill="#4E2D2D"/>
<path d="M209.444 32.0682C209.444 32.1136 209.448 32.1742 209.457 32.2499C209.466 32.3256 209.484 32.4073 209.512 32.4951C209.539 32.5829 209.578 32.6722 209.63 32.763C209.681 32.8508 209.749 32.9311 209.834 33.0037C209.922 33.0764 210.028 33.1354 210.152 33.1808C210.279 33.2262 210.431 33.2489 210.606 33.2489C210.697 33.2489 210.786 33.2368 210.874 33.2126C210.965 33.1854 211.048 33.1475 211.124 33.0991C211.199 33.0476 211.265 32.9871 211.319 32.9174C211.377 32.8448 211.417 32.763 211.442 32.6722H212.772C212.772 32.763 212.753 32.8675 212.713 32.9856C212.674 33.1006 212.613 33.2187 212.532 33.3398C212.453 33.4578 212.353 33.5744 212.232 33.6894C212.111 33.8045 211.967 33.9074 211.8 33.9982C211.634 34.086 211.445 34.1572 211.233 34.2117C211.024 34.2662 210.791 34.2934 210.533 34.2934C210.203 34.2934 209.893 34.2435 209.603 34.1435C209.315 34.0467 209.062 33.8923 208.844 33.6803C208.629 33.4654 208.46 33.1884 208.336 32.8493C208.211 32.5102 208.149 32.0985 208.149 31.6141C208.149 31.2781 208.193 30.9556 208.281 30.6468C208.372 30.335 208.511 30.061 208.699 29.8249C208.89 29.5888 209.132 29.4011 209.425 29.2618C209.722 29.1195 210.078 29.0484 210.493 29.0484C210.932 29.0484 211.301 29.121 211.601 29.2663C211.9 29.4086 212.141 29.6115 212.323 29.8748C212.507 30.1382 212.639 30.4561 212.718 30.8285C212.796 31.2009 212.836 31.6141 212.836 32.0682H209.444ZM211.501 31.2145C211.501 30.9965 211.467 30.8149 211.401 30.6696C211.337 30.5242 211.255 30.4092 211.156 30.3244C211.059 30.2366 210.951 30.1761 210.833 30.1428C210.715 30.1064 210.602 30.0883 210.493 30.0883C210.387 30.0883 210.275 30.1064 210.157 30.1428C210.038 30.1761 209.929 30.2366 209.83 30.3244C209.733 30.4092 209.651 30.5242 209.584 30.6696C209.521 30.8149 209.489 30.9965 209.489 31.2145H211.501Z" fill="#4E2D2D"/>
<path d="M218.417 34.1435H217.136V30.2381H215.62L215.592 31.16C215.577 31.6777 215.544 32.1318 215.492 32.5224C215.441 32.9129 215.356 33.2399 215.238 33.5032C215.123 33.7636 214.966 33.9604 214.766 34.0936C214.569 34.2268 214.316 34.2934 214.007 34.2934C213.862 34.2934 213.735 34.2843 213.626 34.2662C213.517 34.251 213.428 34.2283 213.358 34.198V33.1218C213.4 33.14 213.453 33.1566 213.517 33.1717C213.584 33.1869 213.664 33.1944 213.758 33.1944C213.855 33.1944 213.941 33.1657 214.017 33.1082C214.092 33.0476 214.157 32.9401 214.212 32.7857C214.266 32.6283 214.309 32.4118 214.339 32.1364C214.369 31.8609 214.389 31.5051 214.398 31.0692L214.434 29.1937H218.417V34.1435Z" fill="#4E2D2D"/>
<path d="M219.766 29.1937H221.051V32.2453H221.069L222.872 29.1937H224.221V34.1435H222.94V31.16H222.917L221.169 34.1435H219.766V29.1937Z" fill="#4E2D2D"/>
<path d="M229.915 34.1435H228.625V32.3225H227.785C227.601 32.3225 227.442 32.3301 227.309 32.3452C227.178 32.3574 227.071 32.3891 226.986 32.4406C226.901 32.489 226.836 32.5617 226.791 32.6586C226.748 32.7555 226.724 32.8872 226.718 33.0537L226.7 33.5305C226.694 33.6001 226.685 33.6909 226.673 33.803C226.664 33.915 226.635 34.0285 226.587 34.1435H225.229C225.268 34.0769 225.3 34.0134 225.324 33.9528C225.348 33.8892 225.366 33.8287 225.379 33.7712C225.394 33.7106 225.404 33.6501 225.41 33.5895C225.419 33.529 225.427 33.4654 225.433 33.3988L225.497 32.8039C225.512 32.6707 225.53 32.5557 225.551 32.4588C225.572 32.3619 225.607 32.2786 225.656 32.209C225.704 32.1364 225.771 32.0743 225.855 32.0228C225.94 31.9714 226.054 31.9244 226.196 31.882C226.151 31.8699 226.099 31.8533 226.042 31.8321C225.987 31.8079 225.928 31.7776 225.864 31.7413C225.804 31.7019 225.742 31.6535 225.678 31.596C225.618 31.5354 225.56 31.4612 225.506 31.3734C225.466 31.3159 225.435 31.2554 225.41 31.1918C225.389 31.1252 225.372 31.0616 225.36 31.0011C225.348 30.9375 225.341 30.8784 225.338 30.824C225.335 30.7695 225.333 30.7225 225.333 30.6832C225.333 30.5076 225.354 30.3517 225.397 30.2154C225.439 30.0762 225.494 29.9551 225.56 29.8521C225.627 29.7492 225.702 29.6614 225.787 29.5888C225.872 29.5161 225.958 29.4571 226.046 29.4116C226.143 29.3572 226.25 29.3163 226.369 29.289C226.487 29.2588 226.602 29.2376 226.714 29.2255C226.826 29.2103 226.93 29.2012 227.027 29.1982C227.124 29.1952 227.2 29.1937 227.254 29.1937H229.915V34.1435ZM228.625 30.1609H227.59C227.481 30.1609 227.372 30.164 227.263 30.17C227.154 30.1761 227.056 30.2003 226.968 30.2427C226.883 30.282 226.814 30.3456 226.759 30.4334C226.708 30.5182 226.682 30.6393 226.682 30.7967C226.682 30.9511 226.708 31.0692 226.759 31.1509C226.814 31.2327 226.882 31.2932 226.963 31.3326C227.048 31.3719 227.142 31.3946 227.245 31.4007C227.348 31.4067 227.451 31.4098 227.554 31.4098H228.625V30.1609Z" fill="#4E2D2D"/>
<path d="M28.658 14.797C25.2242 11.654 21.8225 8.51102 18.3566 5.40009C17.8752 4.98316 17.2655 4.56623 16.6557 4.47002C13.3182 3.79652 10.2695 4.30966 7.76635 6.84331C7.47752 7.09988 7.25288 7.42059 7.06033 7.70923C6.86778 7.96581 6.73941 8.28652 6.51477 8.67138C7.02824 8.83173 7.44543 8.99209 7.86262 9.15245C11.6494 10.4674 15.4363 11.7823 19.2231 13.0652C19.897 13.2897 20.3463 13.8028 20.7956 14.4122C21.0202 14.7008 21.7904 14.9574 22.1434 14.8932C23.1062 14.6687 23.8443 14.7008 24.7428 15.0215C26.7967 15.7271 28.8185 16.4327 30.9686 16.9779C30.1984 16.2402 29.4282 15.5026 28.658 14.797ZM16.8483 8.12616C16.6557 8.70345 15.5325 8.83173 14.3772 8.41481C13.2219 7.99788 12.4517 7.19609 12.6443 6.61881C12.8368 6.04152 13.96 5.91323 15.1153 6.33016C16.2706 6.74709 17.0408 7.54888 16.8483 8.12616ZM23.6196 12.6162C23.4592 13.0652 22.6569 13.2255 21.8546 12.9369C21.0523 12.6482 20.5388 12.0389 20.6993 11.5899C20.8598 11.1409 21.662 10.9805 22.4643 11.2692C23.2666 11.5257 23.7801 12.1351 23.6196 12.6162Z" fill="#FD9339"/>
<path d="M32.7008 19.3514C29.7805 18.3252 26.8601 17.3309 23.9398 16.3047C23.298 16.0802 22.8487 16.2726 22.1427 16.465C21.3404 16.6895 20.4097 16.3688 19.8321 15.7594C19.5432 15.4387 19.2865 14.7332 18.9014 14.5728C14.8258 13.1296 10.718 11.7184 6.61029 10.3073C6.41774 10.2432 6.22519 10.2111 5.96845 10.179C5.74381 10.8525 5.51917 11.4939 5.29453 12.1674C7.25212 14.0597 6.89911 17.2668 3.30484 17.9403C2.85556 19.2873 2.37418 20.6664 1.9249 22.0775C1.34725 23.8414 0.737508 25.6054 0.159858 27.3693C-0.128968 28.2994 -0.064784 28.4597 0.833783 28.8125C1.57189 29.1012 2.34209 29.3257 3.0802 29.5822C7.38049 31.0575 11.6808 32.5649 15.9811 34.0402C16.3341 34.1684 16.6871 34.2967 16.9759 34.3929C19.9604 32.2121 21.9501 32.9177 22.7524 36.3814C24.004 36.8304 25.3518 37.2794 26.6676 37.7284C27.2452 37.9208 27.6303 37.7284 27.8229 37.119C28.1438 36.0927 28.5289 35.0344 28.8819 33.9439C27.4378 33.0139 26.5071 31.7952 27.0848 30.0312C27.6624 28.2673 29.1066 27.7862 30.8074 27.9787C31.7381 25.2205 32.6367 22.4944 33.5673 19.7042C33.2785 19.6401 32.9897 19.4797 32.7008 19.3514ZM6.48192 26.9524C6.41774 27.1127 6.32146 27.2731 6.1931 27.4014C5.808 27.7862 5.19825 27.9787 4.65269 27.8183C3.97877 27.6259 3.56158 26.8882 3.62576 26.1827C3.62576 26.0864 3.65785 25.9902 3.68994 25.894C3.72204 25.7337 3.81831 25.6054 3.94668 25.4771C3.94668 25.445 3.97877 25.445 3.97877 25.4129C4.17132 25.2205 4.39596 25.0922 4.65269 24.996C4.68479 24.996 4.74897 24.9639 4.78106 24.9639C5.06989 24.8998 5.35871 24.8998 5.61545 24.996C5.808 25.0602 5.96845 25.1564 6.09682 25.3167C6.161 25.3809 6.22519 25.445 6.28937 25.5412C6.44983 25.7978 6.5461 26.0864 6.5782 26.3751C6.5782 26.5675 6.5461 26.7599 6.48192 26.9524ZM16.0132 21.8851C15.6281 22.1417 15.1788 22.302 14.6974 22.3341C14.6653 22.3341 14.6332 22.3341 14.6332 22.3341C14.4407 22.3341 14.2481 22.3341 14.0235 22.302C13.8309 22.2699 13.6063 22.2379 13.4137 22.1417C13.2212 22.0775 13.0607 21.9813 12.9003 21.8851C12.098 21.404 11.5845 20.506 11.4882 19.5439C11.4561 19.159 11.4882 18.7742 11.6166 18.4214C11.745 18.0686 11.9054 17.7799 12.098 17.4913C12.1301 17.4272 12.1622 17.363 12.1942 17.3309C12.3547 17.1385 12.5793 16.9461 12.7719 16.8178C12.9324 16.6895 13.1249 16.5933 13.2854 16.5292C13.9272 16.2726 14.6332 16.2084 15.3713 16.465C16.5266 16.8819 17.2647 17.9082 17.3289 19.0628C17.361 19.4477 17.2968 19.8646 17.1685 20.2494C17.1043 20.4419 17.008 20.6343 16.9117 20.8267C16.7192 21.3078 16.3983 21.6285 16.0132 21.8851ZM18.6768 29.9671C17.6177 29.9671 16.7513 29.1012 16.7513 28.0428C16.7513 26.9844 17.6177 26.1185 18.6768 26.1185C19.7358 26.1185 20.6023 26.9844 20.6023 28.0428C20.6023 29.1012 19.7358 29.9671 18.6768 29.9671ZM26.9564 23.6169C26.8601 23.9697 26.6355 24.2584 26.3146 24.4508C26.2504 24.4829 26.1862 24.547 26.0899 24.5791C25.769 24.7074 25.416 24.7715 25.0951 24.6753C24.4212 24.4508 24.004 23.7773 24.0682 23.0717C24.0682 23.0397 24.0682 23.0397 24.0682 23.0076C24.0682 22.9434 24.1003 22.8472 24.1324 22.7831C24.1965 22.5907 24.2928 22.3982 24.4212 22.2699C24.6137 22.0454 24.8705 21.8851 25.1593 21.8209C25.4481 21.7568 25.7369 21.7568 26.0258 21.853C26.2183 21.9172 26.3788 22.0134 26.5071 22.1417C26.8601 22.4624 27.0527 22.9114 27.0206 23.3924C26.9885 23.4245 26.9885 23.5207 26.9564 23.6169Z" fill="#FD9339"/>
</svg>
