<svg width="32" height="32" viewBox="0 0 32 32" fill="none" xmlns="http://www.w3.org/2000/svg">
<circle cx="16" cy="16" r="16" fill="#F2F2F2"/>
<path d="M9.38457 23.3424V22.2686C9.38457 21.857 9.13461 21.5886 8.7061 21.5886C8.49185 21.5886 8.25974 21.6602 8.09905 21.8928C7.97407 21.696 7.79552 21.5886 7.5277 21.5886C7.34916 21.5886 7.17061 21.6423 7.02778 21.8391V21.6244H6.65283V23.3424H7.02778V22.3939C7.02778 22.0897 7.18847 21.9465 7.43843 21.9465C7.68839 21.9465 7.81337 22.1076 7.81337 22.3939V23.3424H8.18832V22.3939C8.18832 22.0897 8.36686 21.9465 8.59897 21.9465C8.84893 21.9465 8.97392 22.1076 8.97392 22.3939V23.3424H9.38457ZM14.9373 21.6244H14.3303V21.1054H13.9553V21.6244H13.6161V21.9644H13.9553V22.7518C13.9553 23.1455 14.116 23.3782 14.5445 23.3782C14.7052 23.3782 14.8838 23.3245 15.0087 23.2529L14.9016 22.9308C14.7945 23.0024 14.6695 23.0203 14.5802 23.0203C14.4017 23.0203 14.3303 22.9129 14.3303 22.7339V21.9644H14.9373V21.6244ZM18.1154 21.5886C17.9012 21.5886 17.7583 21.696 17.6691 21.8391V21.6244H17.2941V23.3424H17.6691V22.376C17.6691 22.0897 17.794 21.9286 18.0261 21.9286C18.0976 21.9286 18.1868 21.9465 18.2583 21.9644L18.3654 21.6065C18.294 21.5886 18.1868 21.5886 18.1154 21.5886ZM13.3126 21.7675C13.134 21.6423 12.8841 21.5886 12.6162 21.5886C12.1877 21.5886 11.9021 21.8033 11.9021 22.1434C11.9021 22.4297 12.1163 22.5908 12.4912 22.6444L12.6698 22.6623C12.8662 22.6981 12.9733 22.7518 12.9733 22.8413C12.9733 22.9666 12.8305 23.056 12.5805 23.056C12.3306 23.056 12.1342 22.9666 12.0092 22.8771L11.8306 23.1634C12.027 23.3066 12.2949 23.3782 12.5627 23.3782C13.0626 23.3782 13.3483 23.1455 13.3483 22.8234C13.3483 22.5192 13.1162 22.3581 12.7591 22.3044L12.5805 22.2865C12.4198 22.2686 12.2949 22.2328 12.2949 22.1255C12.2949 22.0002 12.4198 21.9286 12.6162 21.9286C12.8305 21.9286 13.0447 22.0181 13.1519 22.0718L13.3126 21.7675ZM23.2754 21.5886C23.0611 21.5886 22.9183 21.696 22.829 21.8391V21.6244H22.4541V23.3424H22.829V22.376C22.829 22.0897 22.954 21.9286 23.1861 21.9286C23.2575 21.9286 23.3468 21.9465 23.4182 21.9644L23.5253 21.6065C23.4539 21.5886 23.3468 21.5886 23.2754 21.5886ZM18.4904 22.4834C18.4904 23.0024 18.8475 23.3782 19.4009 23.3782C19.6509 23.3782 19.8294 23.3245 20.008 23.1813L19.8294 22.8771C19.6866 22.9845 19.5438 23.0381 19.3831 23.0381C19.0796 23.0381 18.8653 22.8234 18.8653 22.4834C18.8653 22.1612 19.0796 21.9465 19.3831 21.9286C19.5438 21.9286 19.6866 21.9823 19.8294 22.0897L20.008 21.7854C19.8294 21.6423 19.6509 21.5886 19.4009 21.5886C18.8475 21.5886 18.4904 21.9644 18.4904 22.4834ZM21.9541 22.4834V21.6244H21.5792V21.8391C21.4542 21.6781 21.2757 21.5886 21.0436 21.5886C20.5615 21.5886 20.1865 21.9644 20.1865 22.4834C20.1865 23.0024 20.5615 23.3782 21.0436 23.3782C21.2935 23.3782 21.4721 23.2887 21.5792 23.1276V23.3424H21.9541V22.4834ZM20.5793 22.4834C20.5793 22.1791 20.7757 21.9286 21.0971 21.9286C21.4006 21.9286 21.6149 22.1612 21.6149 22.4834C21.6149 22.7876 21.4006 23.0381 21.0971 23.0381C20.7757 23.0203 20.5793 22.7876 20.5793 22.4834ZM16.0979 21.5886C15.5979 21.5886 15.2408 21.9465 15.2408 22.4834C15.2408 23.0203 15.5979 23.3782 16.1157 23.3782C16.3657 23.3782 16.6156 23.3066 16.812 23.1455L16.6335 22.8771C16.4907 22.9845 16.3121 23.056 16.1336 23.056C15.9015 23.056 15.6694 22.9487 15.6158 22.6444H16.8835C16.8835 22.5908 16.8835 22.555 16.8835 22.5013C16.9013 21.9465 16.5799 21.5886 16.0979 21.5886ZM16.0979 21.9107C16.33 21.9107 16.4907 22.0539 16.5264 22.3223H15.6336C15.6694 22.0897 15.83 21.9107 16.0979 21.9107ZM25.4001 22.4834V20.9443H25.0251V21.8391C24.9001 21.6781 24.7216 21.5886 24.4895 21.5886C24.0074 21.5886 23.6325 21.9644 23.6325 22.4834C23.6325 23.0024 24.0074 23.3782 24.4895 23.3782C24.7394 23.3782 24.918 23.2887 25.0251 23.1276V23.3424H25.4001V22.4834ZM24.0253 22.4834C24.0253 22.1791 24.2217 21.9286 24.543 21.9286C24.8466 21.9286 25.0608 22.1612 25.0608 22.4834C25.0608 22.7876 24.8466 23.0381 24.543 23.0381C24.2217 23.0203 24.0253 22.7876 24.0253 22.4834ZM11.4914 22.4834V21.6244H11.1165V21.8391C10.9915 21.6781 10.8129 21.5886 10.5808 21.5886C10.0988 21.5886 9.7238 21.9644 9.7238 22.4834C9.7238 23.0024 10.0988 23.3782 10.5808 23.3782C10.8308 23.3782 11.0093 23.2887 11.1165 23.1276V23.3424H11.4914V22.4834ZM10.0987 22.4834C10.0987 22.1791 10.2951 21.9286 10.6165 21.9286C10.9201 21.9286 11.1343 22.1612 11.1343 22.4834C11.1343 22.7876 10.9201 23.0381 10.6165 23.0381C10.2951 23.0203 10.0987 22.7876 10.0987 22.4834Z" fill="black"/>
<path d="M18.8126 8.57812H13.1885V18.7072H18.8126V8.57812Z" fill="#FF5F00"/>
<path d="M13.5453 13.6427C13.5453 11.5847 14.5095 9.7593 15.9914 8.57818C14.9023 7.71918 13.5275 7.2002 12.0277 7.2002C8.47467 7.2002 5.6001 10.0814 5.6001 13.6427C5.6001 17.204 8.47467 20.0852 12.0277 20.0852C13.5275 20.0852 14.9023 19.5662 15.9914 18.7072C14.5095 17.544 13.5453 15.7007 13.5453 13.6427Z" fill="#EB001B"/>
<path d="M26.3998 13.6427C26.3998 17.204 23.5252 20.0852 19.9722 20.0852C18.4724 20.0852 17.0976 19.5662 16.0085 18.7072C17.5083 17.5261 18.4546 15.7007 18.4546 13.6427C18.4546 11.5847 17.4904 9.7593 16.0085 8.57818C17.0976 7.71918 18.4724 7.2002 19.9722 7.2002C23.5252 7.2002 26.3998 10.0993 26.3998 13.6427Z" fill="#F79E1B"/>
</svg>
