<svg width="32" height="32" viewBox="0 0 32 32" fill="none" xmlns="http://www.w3.org/2000/svg">
<path d="M17.9603 10.2744H14.1172V15.6862H17.9603C18.8231 15.6862 19.5289 15.4509 19.9995 14.9803C20.5486 14.5097 20.7839 13.8038 20.7839 13.0195C20.7839 12.2352 20.5486 11.6077 19.9995 11.0587C19.5289 10.5881 18.8231 10.2744 17.9603 10.2744Z" fill="#4FAD50"/>
<path d="M16 0C7.13725 0 0 7.13725 0 16C0 24.8627 7.13725 32 16 32C24.8627 32 32 24.8627 32 16C31.9216 7.13725 24.7843 0 16 0ZM22.1176 16.7843C21.098 17.7255 19.7647 18.2745 18.1961 18.2745H14.1176V19.6863H20.1569C20.2353 19.6863 20.3922 19.6863 20.4706 19.7647C20.549 19.8431 20.549 19.9216 20.549 20.0784V21.6471C20.549 21.7255 20.549 21.8823 20.4706 21.9608C20.3922 22.0392 20.3137 22.0392 20.1569 22.0392H14.1176V24.3137C14.1176 24.3921 14.1176 24.549 14.0392 24.6274C13.9608 24.7059 13.8824 24.7059 13.8039 24.7059H11.7647C11.6863 24.7059 11.5294 24.7059 11.451 24.6274C11.3725 24.549 11.3725 24.4706 11.3725 24.3137V22.0392H8.70588C8.62745 22.0392 8.47059 22.0392 8.39216 21.9608C8.31373 21.8823 8.31373 21.8039 8.31373 21.6471V20.0784C8.31373 20 8.31373 19.8431 8.39216 19.7647C8.47059 19.6863 8.54902 19.6863 8.70588 19.6863H11.3725V18.2745H8.70588C8.62745 18.2745 8.47059 18.2745 8.39216 18.1961C8.31373 18.1176 8.31373 18.0392 8.31373 17.8824V16.0784C8.31373 16 8.31373 15.9216 8.39216 15.8431C8.47059 15.7647 8.54902 15.7647 8.70588 15.7647H11.3725V8.23529C11.3725 8.15686 11.3725 8 11.451 7.92157C11.5294 7.84314 11.6078 7.84313 11.7647 7.84313H18.2745C19.8431 7.84313 21.1765 8.31373 22.1961 9.33334C23.2157 10.2745 23.6863 11.6078 23.6863 13.098C23.6863 14.5098 23.1373 15.7647 22.1176 16.7843Z" fill="#4FAD50"/>
</svg>
