<svg width="32" height="32" viewBox="0 0 32 32" fill="none" xmlns="http://www.w3.org/2000/svg">
<path d="M28.6618 6.2168C29.4218 7.19948 30.0652 8.26709 30.579 9.39818L16.0046 20.1423L9.91357 16.3239V11.7302L16.0046 15.5486L28.6618 6.2168Z" fill="#21A038"/>
<path d="M3.69636 16C3.69636 15.7938 3.70139 15.5891 3.71144 15.3855L0.0201037 15.2046C0.00753956 15.4684 4.46081e-06 15.7348 4.46081e-06 16.0037C-0.0015661 18.1043 0.411601 20.1846 1.21582 22.1251C2.02002 24.0657 3.19944 25.8283 4.68642 27.3119L7.30478 24.6947C6.16016 23.5547 5.25212 22.1996 4.63287 20.7075C4.01362 19.2153 3.69535 17.6155 3.69636 16Z" fill="url(#paint0_linear_958_9978)"/>
<path d="M16.0002 3.69599C16.2062 3.69599 16.4109 3.70353 16.6145 3.71358L16.7992 0.0208113C16.5346 0.00824658 16.2682 0.00196499 16.0002 0.00196499C13.8986 -0.000597904 11.8174 0.411993 9.87581 1.21605C7.93422 2.0201 6.17058 3.19978 4.68616 4.68736L7.30452 7.30584C8.44457 6.16079 9.79971 5.25239 11.292 4.63288C12.7843 4.01338 14.3843 3.69497 16.0002 3.69599Z" fill="url(#paint1_linear_958_9978)"/>
<path d="M16 28.3048C15.794 28.3048 15.5891 28.3048 15.3844 28.2885L15.1997 31.98C15.4652 31.9934 15.732 32.0002 16 32.0002C18.1007 32.0023 20.1809 31.5895 22.1215 30.7852C24.062 29.9809 25.8245 28.801 27.3078 27.3135L24.6945 24.6963C23.5542 25.8407 22.1992 26.7486 20.7072 27.3679C19.2151 27.9872 17.6155 28.3056 16 28.3048Z" fill="url(#paint2_linear_958_9978)"/>
<path d="M22.9346 5.84262L26.0455 3.54956C23.2021 1.24702 19.6529 -0.00639159 15.9941 2.45106e-05V3.69531C18.4717 3.69223 20.8917 4.44098 22.9346 5.84262Z" fill="url(#paint3_linear_958_9978)"/>
<path d="M31.9998 16.0001C32.0018 15.0388 31.9177 14.0791 31.7485 13.1328L28.3047 15.6709C28.3047 15.7803 28.3047 15.8895 28.3047 16.0001C28.3056 17.7193 27.9452 19.4195 27.247 20.9905C26.5487 22.5615 25.5281 23.9682 24.2515 25.1195L26.7354 27.865C28.3952 26.3665 29.7215 24.536 30.6284 22.492C31.5354 20.448 32.0026 18.2362 31.9998 16.0001Z" fill="#21A038"/>
<path d="M15.9996 28.3049C14.2803 28.3054 12.5801 27.9449 11.0089 27.2467C9.43788 26.5485 8.03094 25.528 6.87925 24.2515L4.13525 26.7343C5.63347 28.3944 7.46387 29.721 9.50777 30.6282C11.5517 31.5353 13.7634 32.0027 15.9996 32.0001V28.3049Z" fill="url(#paint4_linear_958_9978)"/>
<path d="M7.74956 6.88016L5.26689 4.13477C3.60663 5.63295 2.2798 7.4634 1.37245 9.50739C0.465117 11.5514 -0.00247372 13.7633 9.84166e-06 15.9996H3.69637C3.69561 14.2805 4.05603 12.5803 4.75425 11.0093C5.45249 9.43833 6.47296 8.03156 7.74956 6.88016Z" fill="url(#paint5_linear_958_9978)"/>
<defs>
<linearGradient id="paint0_linear_958_9978" x1="5.43398" y1="26.8509" x2="1.39553" y2="15.1771" gradientUnits="userSpaceOnUse">
<stop offset="0.14" stop-color="#F1E813"/>
<stop offset="0.3" stop-color="#E6E418"/>
<stop offset="0.58" stop-color="#C9DA26"/>
<stop offset="0.89" stop-color="#A2CC39"/>
</linearGradient>
<linearGradient id="paint1_linear_958_9978" x1="5.74154" y1="5.34072" x2="16.1435" y2="1.37688" gradientUnits="userSpaceOnUse">
<stop offset="0.06" stop-color="#0FA7DF"/>
<stop offset="0.54" stop-color="#0098F8"/>
<stop offset="0.92" stop-color="#0290EA"/>
</linearGradient>
<linearGradient id="paint2_linear_958_9978" x1="14.956" y1="29.7699" x2="26.7185" y2="27.1127" gradientUnits="userSpaceOnUse">
<stop offset="0.12" stop-color="#A2CC39"/>
<stop offset="0.28" stop-color="#86C239"/>
<stop offset="0.87" stop-color="#219F38"/>
</linearGradient>
<linearGradient id="paint3_linear_958_9978" x1="15.2253" y1="1.23765" x2="25.2816" y2="4.34086" gradientUnits="userSpaceOnUse">
<stop offset="0.06" stop-color="#0290EA"/>
<stop offset="0.79" stop-color="#0C89CA"/>
</linearGradient>
<linearGradient id="paint4_linear_958_9978" x1="5.06248" y1="26.2844" x2="16.0085" y2="30.3751" gradientUnits="userSpaceOnUse">
<stop offset="0.13" stop-color="#F1E813"/>
<stop offset="0.3" stop-color="#EAE616"/>
<stop offset="0.53" stop-color="#D8DF1F"/>
<stop offset="0.8" stop-color="#BAD52D"/>
<stop offset="0.98" stop-color="#A2CC39"/>
</linearGradient>
<linearGradient id="paint5_linear_958_9978" x1="1.37703" y1="16.4469" x2="5.77108" y2="5.01696" gradientUnits="userSpaceOnUse">
<stop offset="0.07" stop-color="#A2CC39"/>
<stop offset="0.26" stop-color="#81C45E"/>
<stop offset="0.92" stop-color="#0FA7DF"/>
</linearGradient>
</defs>
</svg>
