<svg width="32" height="32" viewBox="0 0 32 32" fill="none" xmlns="http://www.w3.org/2000/svg">
<path d="M20.2667 15.3816L16.8381 11.5942L13.0286 14.9952L16.4571 18.8599L20.2667 15.3816Z" fill="#137ABE"/>
<path d="M10.2857 8.50241L13.7143 12.2899L17.5238 8.88889L14.0952 5.10145L10.2857 8.50241Z" fill="#137ABE"/>
<path d="M22.9333 21.9517L19.5048 18.1643L15.6952 21.6425L19.1238 25.43L22.9333 21.9517Z" fill="#137ABE"/>
<path d="M18.9714 28.2899L12.7238 21.256L14.4762 19.7101L10.0571 14.7633L11.8095 13.2174L7.39048 8.27053L14.3238 2.00966L16.5333 4.4058L20.3429 1.08213L22.5524 3.40097L24 2.08696C23.6952 1.93237 23.3143 1.70048 23.0095 1.54589C20.8 0.618357 18.4381 0 15.9238 0C7.1619 0 0 7.18841 0 16C0 24.8116 7.1619 32 16 32C18.8952 32 21.5619 31.2271 23.8476 29.913C24.6095 29.4493 25.2952 28.9855 25.981 28.5217L22.781 24.8889L18.9714 28.2899Z" fill="#137ABE"/>
<path d="M17.2952 6.64734L19.8095 9.50725L22.7048 6.95652L20.1143 4.09662L17.2952 6.64734Z" fill="#137ABE"/>
<path d="M25.2952 12.6763L22.7048 9.81642L19.8857 12.4444L22.4762 15.2271L25.2952 12.6763Z" fill="#137ABE"/>
<path d="M27.7333 18.7053L25.1429 15.8454L22.3238 18.3961L24.9143 21.3333L27.7333 18.7053Z" fill="#137ABE"/>
<path d="M27.8857 9.27536L25.981 10.9758L27.7333 12.9082L29.5619 11.2077L27.8857 9.27536Z" fill="#137ABE"/>
<path d="M28.419 16.6184L30.0952 18.5507L32 16.8502L30.2476 14.9179L28.419 16.6184Z" fill="#137ABE"/>
<path d="M23.5429 5.33333L25.2952 7.2657L27.1238 5.56522L25.4476 3.63285L23.5429 5.33333Z" fill="#137ABE"/>
<path d="M24.8381 24.1932L27.4286 27.0531L30.2476 24.5024L27.6571 21.6425L24.8381 24.1932Z" fill="#137ABE"/>
</svg>
