<svg width="32" height="32" viewBox="0 0 32 32" fill="none" xmlns="http://www.w3.org/2000/svg">
<circle cx="16" cy="16" r="16" fill="#F2F2F2"/>
<path d="M24.77 13.8779C24.678 13.3302 24.1721 12.965 23.4822 12.965C23.2522 12.965 23.0682 12.965 22.8382 12.965C22.4243 12.9194 22.3323 13.0563 22.3323 13.3758C22.3323 14.9734 22.3323 16.5253 22.3323 18.1228C22.3323 18.9444 21.5044 19.8117 20.5385 19.9943C17.5029 20.6789 14.4673 21.318 11.4317 22.0026C11.1097 22.0939 10.7417 22.0939 10.3738 22.0939C10.2358 22.0939 10.0058 22.0026 9.95985 21.8657C9.91386 21.7744 10.0518 21.5918 10.1438 21.5005C10.2818 21.4093 10.4658 21.318 10.6498 21.2267C11.2017 21.0441 11.7996 20.8615 12.3515 20.6789C14.6053 19.9486 16.859 19.2183 19.1127 18.4424C20.1246 18.1228 20.6765 17.4382 20.6765 16.5709C20.7225 13.8323 20.6765 11.0479 20.6765 8.30926C20.6765 7.85281 20.4465 7.48765 19.9406 7.30508C19.3427 7.07685 18.7907 7.25943 18.2848 7.48765C15.0652 8.99392 11.8916 10.5002 8.672 12.0065C7.75212 12.4629 7.2002 13.1019 7.2002 14.0148C7.2002 16.6166 7.2002 19.2183 7.2002 21.8201C7.2002 21.957 7.20018 22.0939 7.24618 22.1852C7.56814 23.0525 8.39605 23.6002 9.49991 23.6002C11.7536 23.6002 14.0073 23.6002 16.2611 23.6002C18.5148 23.6002 20.7225 23.6002 22.9762 23.6002C23.4821 23.6002 23.8961 23.5089 24.264 23.1894C24.724 22.8242 24.724 22.3221 24.724 21.8657C24.724 19.3096 24.724 16.7992 24.724 14.2431C24.816 14.1974 24.816 14.0148 24.77 13.8779ZM15.3872 13.0563C15.6171 12.4629 16.1231 12.0978 16.859 12.0065C17.3649 11.9608 17.7789 12.2347 17.8708 12.6911C17.9628 13.3758 17.1349 14.1974 16.2611 14.1974C15.5711 14.1974 15.1572 13.6953 15.3872 13.0563Z" fill="#E47418"/>
</svg>
