<svg width="34" height="34" viewBox="0 0 34 34" fill="none" xmlns="http://www.w3.org/2000/svg">
<path d="M28.658 10.797C25.2242 7.65402 21.8225 4.51102 18.3566 1.40009C17.8752 0.983163 17.2655 0.566234 16.6557 0.47002C13.3182 -0.20348 10.2695 0.309663 7.76635 2.84331C7.47752 3.09988 7.25288 3.42059 7.06033 3.70923C6.86778 3.96581 6.73941 4.28652 6.51477 4.67138C7.02824 4.83173 7.44543 4.99209 7.86262 5.15245C11.6494 6.46738 15.4363 7.7823 19.2231 9.06516C19.897 9.28966 20.3463 9.8028 20.7956 10.4122C21.0202 10.7008 21.7904 10.9574 22.1434 10.8932C23.1062 10.6687 23.8443 10.7008 24.7428 11.0215C26.7967 11.7271 28.8185 12.4327 30.9686 12.9779C30.1984 12.2402 29.4282 11.5026 28.658 10.797ZM16.8483 4.12616C16.6557 4.70345 15.5325 4.83173 14.3772 4.41481C13.2219 3.99788 12.4517 3.19609 12.6443 2.61881C12.8368 2.04152 13.96 1.91323 15.1153 2.33016C16.2706 2.74709 17.0408 3.54888 16.8483 4.12616ZM23.6196 8.61616C23.4592 9.06516 22.6569 9.22552 21.8546 8.93688C21.0523 8.64823 20.5388 8.03888 20.6993 7.58988C20.8598 7.14088 21.662 6.98052 22.4643 7.26916C23.2666 7.52573 23.7801 8.13509 23.6196 8.61616Z" fill="#FD9339"/>
<path d="M32.7008 15.3514C29.7805 14.3252 26.8601 13.3309 23.9398 12.3047C23.298 12.0802 22.8487 12.2726 22.1427 12.465C21.3404 12.6895 20.4097 12.3688 19.8321 11.7594C19.5432 11.4387 19.2865 10.7332 18.9014 10.5728C14.8258 9.12959 10.718 7.71844 6.61029 6.3073C6.41774 6.24316 6.22519 6.21109 5.96845 6.17902C5.74381 6.85252 5.51917 7.49394 5.29453 8.16744C7.25212 10.0597 6.89911 13.2668 3.30484 13.9403C2.85556 15.2873 2.37418 16.6664 1.9249 18.0775C1.34725 19.8414 0.737508 21.6054 0.159858 23.3693C-0.128968 24.2994 -0.064784 24.4597 0.833783 24.8125C1.57189 25.1012 2.34209 25.3257 3.0802 25.5822C7.38049 27.0575 11.6808 28.5649 15.9811 30.0402C16.3341 30.1684 16.6871 30.2967 16.9759 30.3929C19.9604 28.2121 21.9501 28.9177 22.7524 32.3814C24.004 32.8304 25.3518 33.2794 26.6676 33.7284C27.2452 33.9208 27.6303 33.7284 27.8229 33.119C28.1438 32.0927 28.5289 31.0344 28.8819 29.9439C27.4378 29.0139 26.5071 27.7952 27.0848 26.0312C27.6624 24.2673 29.1066 23.7862 30.8074 23.9787C31.7381 21.2205 32.6367 18.4944 33.5673 15.7042C33.2785 15.6401 32.9897 15.4797 32.7008 15.3514ZM6.48192 22.9524C6.41774 23.1127 6.32146 23.2731 6.1931 23.4014C5.808 23.7862 5.19825 23.9787 4.65269 23.8183C3.97877 23.6259 3.56158 22.8882 3.62576 22.1827C3.62576 22.0864 3.65785 21.9902 3.68994 21.894C3.72204 21.7337 3.81831 21.6054 3.94668 21.4771C3.94668 21.445 3.97877 21.445 3.97877 21.4129C4.17132 21.2205 4.39596 21.0922 4.65269 20.996C4.68479 20.996 4.74897 20.9639 4.78106 20.9639C5.06989 20.8998 5.35871 20.8998 5.61545 20.996C5.808 21.0602 5.96845 21.1564 6.09682 21.3167C6.161 21.3809 6.22519 21.445 6.28937 21.5412C6.44983 21.7978 6.5461 22.0864 6.5782 22.3751C6.5782 22.5675 6.5461 22.7599 6.48192 22.9524ZM16.0132 17.8851C15.6281 18.1417 15.1788 18.302 14.6974 18.3341C14.6653 18.3341 14.6332 18.3341 14.6332 18.3341C14.4407 18.3341 14.2481 18.3341 14.0235 18.302C13.8309 18.2699 13.6063 18.2379 13.4137 18.1417C13.2212 18.0775 13.0607 17.9813 12.9003 17.8851C12.098 17.404 11.5845 16.506 11.4882 15.5439C11.4561 15.159 11.4882 14.7742 11.6166 14.4214C11.745 14.0686 11.9054 13.7799 12.098 13.4913C12.1301 13.4272 12.1622 13.363 12.1942 13.3309C12.3547 13.1385 12.5793 12.9461 12.7719 12.8178C12.9324 12.6895 13.1249 12.5933 13.2854 12.5292C13.9272 12.2726 14.6332 12.2084 15.3713 12.465C16.5266 12.8819 17.2647 13.9082 17.3289 15.0628C17.361 15.4477 17.2968 15.8646 17.1685 16.2494C17.1043 16.4419 17.008 16.6343 16.9117 16.8267C16.7192 17.3078 16.3983 17.6285 16.0132 17.8851ZM18.6768 25.9671C17.6177 25.9671 16.7513 25.1012 16.7513 24.0428C16.7513 22.9844 17.6177 22.1185 18.6768 22.1185C19.7358 22.1185 20.6023 22.9844 20.6023 24.0428C20.6023 25.1012 19.7358 25.9671 18.6768 25.9671ZM26.9564 19.6169C26.8601 19.9697 26.6355 20.2584 26.3146 20.4508C26.2504 20.4829 26.1862 20.547 26.0899 20.5791C25.769 20.7074 25.416 20.7715 25.0951 20.6753C24.4212 20.4508 24.004 19.7773 24.0682 19.0717C24.0682 19.0397 24.0682 19.0397 24.0682 19.0076C24.0682 18.9434 24.1003 18.8472 24.1324 18.7831C24.1965 18.5907 24.2928 18.3982 24.4212 18.2699C24.6137 18.0454 24.8705 17.8851 25.1593 17.8209C25.4481 17.7568 25.7369 17.7568 26.0258 17.853C26.2183 17.9172 26.3788 18.0134 26.5071 18.1417C26.8601 18.4624 27.0527 18.9114 27.0206 19.3924C26.9885 19.4245 26.9885 19.5207 26.9564 19.6169Z" fill="#FD9339"/>
</svg>
